<?xml version="1.0"?>
<!DOCTYPE svg PUBLIC "-//W3C//DTD SVG 1.1//EN" "http://www.w3.org/Graphics/SVG/1.1/DTD/svg11.dtd">
<svg width="112.29498883091233mm" height="21.054233603425075mm" viewBox="0 0 112.29498883091233 21.054233603425075" xmlns="http://www.w3.org/2000/svg" version="1.1">
<g id="lids" transform="translate(56.147843,283.100931) scale(1,-1)">
<circle cx="-4.444605902859377" cy="269.629280096208" r="0.9000000000000004" stroke="#191919" stroke-width="0.35 px" style="stroke-width:0.35;stroke-miterlimit:4;stroke-dasharray:none;stroke-linecap:square;fill:none"/>
<circle cx="-52.876259872985166" cy="274.96199945055" r="0.8999999999999986" stroke="#191919" stroke-width="0.35 px" style="stroke-width:0.35;stroke-miterlimit:4;stroke-dasharray:none;stroke-linecap:square;fill:none"/>
<path id="lids_nwe0002"  d="M 8.633759933988856e-14 282.0 A 282 282 0 0 1 -53.4259 276.893" stroke="#191919" stroke-width="0.35 px" style="stroke-width:0.35;stroke-miterlimit:4;stroke-dasharray:none;stroke-linecap:square;fill:none;fill-opacity:1;fill-rule: evenodd"/>
<path id="lids_nwe0003"  d="M 8.205133554287283e-14 268.0 A 268 268 0 0 1 -50.5859 263.183" stroke="#191919" stroke-width="0.35 px" style="stroke-width:0.35;stroke-miterlimit:4;stroke-dasharray:none;stroke-linecap:square;fill:none;fill-opacity:1;fill-rule: evenodd"/>
<path id="lids_nwe0004"  d="M -55.003154522798766 274.512452863678 L -52.91949992450636 264.729976225648 " stroke="#191919" stroke-width="0.35 px" style="stroke-width:0.35;stroke-miterlimit:4;stroke-dasharray:none;stroke-linecap:square;fill:none;fill-opacity:1;fill-rule: evenodd"/>
<path id="lids_nwe0005"  d="M 5.344605902859543 269.629280096208 C 5.344605902859543 269.66624000978 5.342326296342604 269.70319984127053 5.33778436156428 269.7398795578065 C 5.333242426785956 269.7765592743424 5.32643816374625 269.8129588759237 5.317423145291052 269.8488024443059 C 5.308408126835853 269.884646012688 5.297182352965162 269.919933547871 5.283830909323461 269.95439759577664 C 5.27047946568176 269.98886164368236 5.255002352269046 270.02250220431074 5.237516877716741 270.05506429736073 C 5.220031403164436 270.08762639041066 5.200537567472539 270.11911001588237 5.179183123980135 270.14927654447587 C 5.1578286804877305 270.17944307306936 5.134613629194816 270.2082925047847 5.109713928358132 270.23560617549003 C 5.0848142275214485 270.2629198461953 5.058229877140995 270.28869775589067 5.030162373043358 270.31274452119715 C 5.002094868945722 270.3367912865036 4.972544211130904 270.3591069074213 4.941734378523998 270.379522242907 C 4.910924545917091 270.39993757839267 4.878855538518097 270.41845262844635 4.845770423058427 270.4349270584279 C 4.812685307598756 270.4514014884094 4.7785840840784095 270.46583529831867 4.743725222391234 270.47811908723247 C 4.708866360704059 270.49040287614633 4.673249860850056 270.5005366440647 4.637145677745388 270.50844358219183 C 4.60104149464072 270.516350520319 4.564449628285386 270.522030628655 4.527647426376513 270.52544085487364 C 4.49084522446764 270.52885108109234 4.453832687005226 270.52999142519366 4.416890350158987 270.5288532439503 C 4.379948013312746 270.527715062707 4.343075877082679 270.524298356119 4.306553413468718 270.5186290210812 C 4.270030949854759 270.51295968604336 4.233858158856906 270.5050377225557 4.198309211794665 270.4949231750637 C 4.162760264732424 270.4848086275717 4.127835161605793 270.4725014960753 4.093798616896129 270.45809506235884 C 4.059762072186466 270.44368862864235 4.02661408589377 270.4271828927057 3.9946059028595418 270.4087029596145 C 3.9625977198253133 270.39022302652336 3.931729340049553 270.3697688962777 3.902234730118213 270.34749560076034 C 3.872740120186873 270.325222305243 3.8446192800999532 270.301129844454 3.8180853514929103 270.27540082696635 C 3.791551422885867 270.2496718094787 3.7666044057587 270.2223062352923 3.7434333857864397 270.1935115215126 C 3.72026236581418 270.164716807733 3.6988673429968264 270.13449295436 3.679410480702891 270.10306904279764 C 3.659953618408956 270.0716451312353 3.6424349166384387 270.0390211614837 3.6269871582219704 270.00544440660616 C 3.611539399805502 269.97186765172864 3.5981625847430827 269.93733811172535 3.586958102475098 269.90211750291036 C 3.575753620207113 269.86689689409536 3.5667214707335626 269.83098521646866 3.5599301131440244 269.79465466224366 C 3.553138755554486 269.75832410801866 3.5485881898489593 269.72157467719535 3.546312906996196 269.68468491172916 C 3.5440376241434324 269.647795146263 3.5440376241434324 269.61076504615403 3.546312906996196 269.57387528068784 C 3.5485881898489593 269.53698551522166 3.5531387555544858 269.50023608439835 3.559930113144024 269.46390553017335 C 3.5667214707335626 269.42757497594835 3.575753620207113 269.39166329832165 3.586958102475098 269.3564426895065 C 3.5981625847430827 269.3212220806913 3.611539399805503 269.2866925406877 3.6269871582219695 269.25311578581 C 3.642434916638436 269.2195390309323 3.6599536184089496 269.1869150611807 3.6794104807028845 269.15549114961834 C 3.6988673429968193 269.124067238056 3.720262365814176 269.093843384683 3.743433385786438 269.0650486709035 C 3.7666044057586996 269.036253957124 3.791551422885866 269.00888838293804 3.8180853514929076 268.9831593654503 C 3.8446192800999492 268.95743034796266 3.872740120186866 268.93333788717337 3.9022347301182063 268.911064591656 C 3.9317293400495466 268.88879129613866 3.96259771982531 268.8683371658933 3.9946059028595404 268.8498572328023 C 4.026614085893769 268.83137729971133 4.059762072186464 268.81487156377466 4.093798616896126 268.800465130058 C 4.127835161605791 268.78605869634134 4.162760264732423 268.7737515648447 4.198309211794669 268.7636370173525 C 4.233858158856911 268.75352246986034 4.270030949854766 268.7456005063727 4.306553413468725 268.739931171335 C 4.343075877082685 268.7342618362974 4.379948013312749 268.7308451297097 4.416890350158988 268.72970694846634 C 4.453832687005226 268.728568767223 4.490845224467639 268.72970911132404 4.527647426376513 268.7331193375425 C 4.564449628285386 268.736529563761 4.60104149464072 268.74220967209703 4.637145677745388 268.7501166102244 C 4.673249860850056 268.7580235483517 4.708866360704059 268.76815731627033 4.743725222391232 268.7804411051843 C 4.778584084078406 268.79272489409834 4.812685307598749 268.80715870400763 4.845770423058419 268.823633133989 C 4.878855538518089 268.8401075639703 4.910924545917086 268.85862261402366 4.941734378523993 268.8790379495092 C 4.9725442111308995 268.8994532849947 5.002094868945717 268.92176890591236 5.030162373043353 268.94581567121884 C 5.05822987714099 268.9698624365253 5.084814227521446 268.9956403462206 5.109713928358133 269.0229540169262 C 5.13461362919482 269.0502676876317 5.157828680487737 269.0791171193473 5.179183123980142 269.1092836479408 C 5.200537567472546 269.1394501765343 5.220031403164439 269.1709338020056 5.237516877716741 269.20349589505565 C 5.255002352269045 269.23605798810564 5.270479465681759 269.2696985487343 5.283830909323459 269.30416259664014 C 5.29718235296516 269.33862664454597 5.308408126835846 269.373914179729 5.317423145291046 269.409757748111 C 5.326438163746246 269.445601316493 5.33324242678596 269.48200091807405 5.3377843615642835 269.51868063461006 C 5.342326296342608 269.555360351146 5.344605902859543 269.592320182637 5.344605902859543 269.629280096208 " stroke="#191919" stroke-width="0.35 px" style="stroke-width:0.35;stroke-miterlimit:4;stroke-dasharray:none;stroke-linecap:square;fill:none;fill-opacity:1;fill-rule: evenodd"/>
<circle cx="52.87625987298534" cy="274.96199945055" r="0.8999999999999986" stroke="#191919" stroke-width="0.35 px" style="stroke-width:0.35;stroke-miterlimit:4;stroke-dasharray:none;stroke-linecap:square;fill:none"/>
<path id="lids_nwe0007"  d="M 53.42594277162114 276.892882969143 C 47.56179028704874 278.024359775933 41.66168233741159 278.96948354422705 35.737522205454056 279.72634753740056 C 29.81336207349651 280.483211530574 23.865149759218568 281.051815748627 17.90488752342504 281.43101286598346 C 11.944625287631522 281.81020998334 5.972313130322425 282.0 3.453503973595527e-14 282.0 " stroke="#191919" stroke-width="0.35 px" style="stroke-width:0.35;stroke-miterlimit:4;stroke-dasharray:none;stroke-linecap:square;fill:none;fill-opacity:1;fill-rule: evenodd"/>
<path id="lids_nwe0008"  d="M 50.58587425350534 263.182577930243 C 45.032943151968034 264.249897342682 39.4462223498317 265.141414639179 33.8368987165817 265.8553446617988 C 28.227575083331676 266.56927468441864 22.595648618967996 267.10561743316134 16.95239851227464 267.46329876205664 C 11.3091484055813 267.820980090952 5.654574656558283 268.0 3.282053421714898e-14 268.0 " stroke="#191919" stroke-width="0.35 px" style="stroke-width:0.35;stroke-miterlimit:4;stroke-dasharray:none;stroke-linecap:square;fill:none;fill-opacity:1;fill-rule: evenodd"/>
<path id="lids_nwe0009"  d="M 55.00315452279894 274.512452863678 L 52.91949992450654 264.729976225648 " stroke="#191919" stroke-width="0.35 px" style="stroke-width:0.35;stroke-miterlimit:4;stroke-dasharray:none;stroke-linecap:square;fill:none;fill-opacity:1;fill-rule: evenodd"/>
<path id="lids_nwe0010"  d="M -53.42594277162076 276.892882969143 C -53.50028832677096 276.878538138997 -53.573818278054816 276.859966885237 -53.64605904231014 276.8372888284278 C -53.71829980656547 276.8146107716186 -53.78925138379226 276.7878259117603 -53.858456611353716 276.75710682440916 C -53.92766183891517 276.726387737058 -53.99512071681127 276.69173442221404 -54.0603986361888 276.65337013991655 C -54.12567655556633 276.615005857619 -54.18877351642529 276.572930607868 -54.24928299885694 276.5274154709134 C -54.309792481288596 276.48190033395895 -54.36771448529293 276.43294530980097 -54.42267583551728 276.3808658025448 C -54.47763718574163 276.32878629528864 -54.529637882185995 276.2735823049343 -54.57834289792701 276.2156094962061 C -54.62704791366802 276.157636687478 -54.6724572487057 276.096895060376 -54.71427834278056 276.03377595712004 C -54.75609943685543 275.97065685386406 -54.7943322899675 275.90516027445403 -54.828730577943766 275.8377081959503 C -54.86312886592003 275.77025611744665 -54.8936925887605 275.7008485398493 -54.92022483254233 275.6299326380046 C -54.94675707632417 275.55901673615995 -54.969257841047366 275.48659251006796 -54.98758216007833 275.4131265690602 C -55.0059064791093 275.33966062805234 -55.02005435244803 275.2651529721287 -55.02993462970983 275.1900836372729 C -55.03981490697163 275.115014302417 -55.0454275881565 275.039383288629 -55.04673650994833 274.96367785571135 C -55.048045431740164 274.88797242279367 -55.045050594138964 274.81219257074633 -55.03777130066541 274.73682656934415 C -55.03049200719187 274.66146056794196 -55.018928257845964 274.586508417185 -55.003154522798766 274.512452863678 " stroke="#191919" stroke-width="0.35 px" style="stroke-width:0.35;stroke-miterlimit:4;stroke-dasharray:none;stroke-linecap:square;fill:none;fill-opacity:1;fill-rule: evenodd"/>
<path id="lids_nwe0011"  d="M -52.91949992450636 264.729976225648 A 2 2 0 0 1 -50.5859 263.183" stroke="#191919" stroke-width="0.35 px" style="stroke-width:0.35;stroke-miterlimit:4;stroke-dasharray:none;stroke-linecap:square;fill:none;fill-opacity:1;fill-rule: evenodd"/>
<path id="lids_nwe0012"  d="M 55.00315452279894 274.512452863678 C 55.018928257846134 274.586508417185 55.03049200719204 274.66146056794196 55.03777130066558 274.73682656934415 C 55.045050594139134 274.81219257074633 55.048045431740334 274.88797242279367 55.0467365099485 274.96367785571135 C 55.04542758815667 275.039383288629 55.0398149069718 275.11501430241697 55.02993462971 275.19008363727283 C 55.0200543524482 275.2651529721287 55.00590647910947 275.33966062805234 54.98758216007852 275.4131265690602 C 54.969257841047565 275.486592510068 54.9467570763244 275.55901673616 54.92022483254257 275.62993263800445 C 54.893692588760736 275.70084853984895 54.86312886592023 275.77025611744597 54.828730577943965 275.83770819594963 C 54.7943322899677 275.90516027445335 54.75609943685566 275.9706568538637 54.71427834278083 276.0337759571199 C 54.672457248706 276.096895060376 54.62704791366837 276.157636687478 54.57834289792736 276.2156094962062 C 54.529637882186336 276.27358230493434 54.47763718574194 276.32878629528864 54.422675835517566 276.3808658025448 C 54.367714485293206 276.43294530980097 54.309792481288866 276.48190033395895 54.24928299885723 276.5274154709133 C 54.1887735164256 276.57293060786765 54.12567655556667 276.6150058576183 54.06039863618915 276.6533701399158 C 53.995120716811634 276.6917344222133 53.92766183891553 276.7263877370576 53.8584566113541 276.757106824409 C 53.78925138379267 276.7878259117603 53.7182998065659 276.8146107716186 53.64605904231057 276.8372888284278 C 53.573818278055235 276.859966885237 53.50028832677133 276.878538138997 53.42594277162114 276.892882969143 " stroke="#191919" stroke-width="0.35 px" style="stroke-width:0.35;stroke-miterlimit:4;stroke-dasharray:none;stroke-linecap:square;fill:none;fill-opacity:1;fill-rule: evenodd"/>
<path id="lids_nwe0013"  d="M 50.58587425350534 263.182577930243 C 50.65839565697224 263.168638715021 50.73168979147364 263.158720346842 50.80530756370866 263.1528835906985 C 50.87892533594368 263.147046834555 50.9528667459123 263.14529169044704 51.0266785642749 263.147628922671 C 51.1004903826375 263.14996615489497 51.17417260939407 263.156395763451 51.247273648999936 263.16687833884265 C 51.3203746886058 263.1773609142343 51.39289454106097 263.1918964564617 51.46438872299785 263.2103958763498 C 51.53588290493474 263.228895296238 51.606351416353334 263.251358593787 51.67536234999052 263.27764808925986 C 51.7443732836277 263.3039375847327 51.811926639483474 263.3340532781293 51.87760837668032 263.3678105876502 C 51.94329011387717 263.401567897171 52.0071002324151 263.438966822816 52.068647634290016 263.4797781431281 C 52.130195036164935 263.5205894634403 52.189479721376834 263.5648131784196 52.24613832866699 263.61217823692516 C 52.30279693595713 263.6595432954307 52.35682946532553 263.71004969746235 52.4079047464241 263.7633878844805 C 52.45898002752267 263.8167260714987 52.5070980603514 263.8728960435034 52.551963925232386 263.9315535302847 C 52.59682979011337 263.99021101706603 52.6384434870466 264.051356018624 52.67654996133579 264.11461376910216 C 52.714656435624974 264.1778715195803 52.74925568727011 264.24324201897866 52.780135656322386 264.31032461505083 C 52.811015625374665 264.377407211123 52.838176311834104 264.446201903869 52.86145123780157 264.516287008794 C 52.88472616376903 264.586372113719 52.90411532924453 264.657747630823 52.91949992450654 264.729976225648 " stroke="#191919" stroke-width="0.35 px" style="stroke-width:0.35;stroke-miterlimit:4;stroke-dasharray:none;stroke-linecap:square;fill:none;fill-opacity:1;fill-rule: evenodd"/>
<path id="lids_nwe0014"  d="M 5.3446059028595325 269.629280096208 C 5.3446059028595325 269.66624000978 5.342326296342598 269.70319984127053 5.337784361564276 269.7398795578065 C 5.333242426785953 269.7765592743424 5.326438163746243 269.8129588759237 5.317423145291045 269.8488024443059 C 5.308408126835846 269.884646012688 5.297182352965159 269.919933547871 5.283830909323459 269.95439759577664 C 5.27047946568176 269.98886164368236 5.255002352269046 270.02250220431074 5.237516877716741 270.05506429736073 C 5.220031403164436 270.08762639041066 5.200537567472539 270.11911001588237 5.179183123980133 270.14927654447587 C 5.157828680487727 270.17944307306936 5.13461362919481 270.2082925047847 5.109713928358126 270.23560617549003 C 5.084814227521442 270.2629198461953 5.058229877140992 270.28869775589067 5.030162373043354 270.31274452119715 C 5.0020948689457185 270.3367912865036 4.972544211130897 270.3591069074213 4.941734378523991 270.379522242907 C 4.910924545917084 270.39993757839267 4.878855538518094 270.41845262844635 4.8457704230584255 270.4349270584279 C 4.812685307598756 270.4514014884094 4.7785840840784095 270.46583529831867 4.743725222391234 270.47811908723247 C 4.708866360704059 270.49040287614633 4.673249860850056 270.5005366440647 4.637145677745388 270.50844358219183 C 4.60104149464072 270.516350520319 4.564449628285386 270.522030628655 4.527647426376513 270.52544085487364 C 4.49084522446764 270.52885108109234 4.453832687005226 270.52999142519366 4.416890350158987 270.5288532439503 C 4.379948013312746 270.527715062707 4.343075877082679 270.524298356119 4.306553413468718 270.5186290210812 C 4.270030949854759 270.51295968604336 4.233858158856906 270.5050377225557 4.198309211794665 270.4949231750637 C 4.162760264732424 270.4848086275717 4.127835161605793 270.4725014960753 4.093798616896129 270.45809506235884 C 4.059762072186466 270.44368862864235 4.02661408589377 270.4271828927057 3.99460590285954 270.4087029596145 C 3.96259771982531 270.39022302652336 3.9317293400495466 270.3697688962777 3.9022347301182068 270.34749560076034 C 3.8727401201868665 270.325222305243 3.84461928009995 270.301129844454 3.8180853514929085 270.27540082696635 C 3.791551422885867 270.2496718094787 3.7666044057587 270.2223062352923 3.743433385786438 270.1935115215126 C 3.7202623658141762 270.164716807733 3.6988673429968193 270.13449295436 3.679410480702884 270.10306904279764 C 3.6599536184089487 270.0716451312353 3.642434916638435 270.0390211614837 3.6269871582219686 270.00544440660616 C 3.611539399805502 269.97186765172864 3.5981625847430827 269.93733811172535 3.586958102475098 269.90211750291036 C 3.575753620207113 269.86689689409536 3.5667214707335626 269.83098521646866 3.5599301131440244 269.79465466224366 C 3.553138755554486 269.75832410801866 3.5485881898489593 269.72157467719535 3.546312906996196 269.68468491172916 C 3.5440376241434324 269.647795146263 3.5440376241434324 269.61076504615403 3.546312906996196 269.57387528068784 C 3.5485881898489593 269.53698551522166 3.5531387555544858 269.50023608439835 3.559930113144024 269.46390553017335 C 3.5667214707335626 269.42757497594835 3.575753620207113 269.39166329832165 3.586958102475098 269.3564426895065 C 3.5981625847430827 269.3212220806913 3.611539399805503 269.2866925406877 3.6269871582219695 269.25311578581 C 3.642434916638436 269.2195390309323 3.6599536184089496 269.1869150611807 3.6794104807028827 269.15549114961834 C 3.698867342996816 269.124067238056 3.720262365814169 269.093843384683 3.7434333857864295 269.0650486709035 C 3.76660440575869 269.036253957124 3.7915514228858562 269.00888838293804 3.8180853514928996 268.9831593654503 C 3.844619280099943 268.95743034796266 3.8727401201868625 268.93333788717337 3.9022347301182045 268.911064591656 C 3.9317293400495466 268.88879129613866 3.96259771982531 268.8683371658933 3.994605902859539 268.8498572328023 C 4.026614085893766 268.83137729971133 4.059762072186458 268.81487156377466 4.09379861689612 268.800465130058 C 4.127835161605785 268.78605869634134 4.1627602647324204 268.7737515648447 4.198309211794665 268.7636370173525 C 4.233858158856908 268.75352246986034 4.2700309498547595 268.7456005063727 4.306553413468718 268.739931171335 C 4.343075877082678 268.7342618362974 4.379948013312745 268.7308451297097 4.416890350158986 268.72970694846634 C 4.453832687005226 268.728568767223 4.490845224467639 268.72970911132404 4.527647426376513 268.7331193375425 C 4.564449628285386 268.736529563761 4.60104149464072 268.74220967209703 4.637145677745388 268.7501166102244 C 4.673249860850056 268.7580235483517 4.708866360704059 268.76815731627033 4.743725222391232 268.7804411051843 C 4.778584084078406 268.79272489409834 4.812685307598749 268.80715870400763 4.845770423058419 268.823633133989 C 4.878855538518089 268.8401075639703 4.910924545917086 268.85862261402366 4.941734378523993 268.8790379495092 C 4.9725442111308995 268.8994532849947 5.002094868945717 268.92176890591236 5.030162373043353 268.94581567121884 C 5.05822987714099 268.9698624365253 5.084814227521446 268.9956403462206 5.109713928358131 269.0229540169262 C 5.134613629194817 269.0502676876317 5.1578286804877305 269.0791171193473 5.179183123980136 269.1092836479408 C 5.20053756747254 269.1394501765343 5.220031403164436 269.1709338020056 5.23751687771674 269.20349589505565 C 5.255002352269045 269.23605798810564 5.270479465681759 269.2696985487343 5.283830909323459 269.30416259664014 C 5.29718235296516 269.33862664454597 5.308408126835846 269.373914179729 5.317423145291046 269.409757748111 C 5.326438163746246 269.445601316493 5.33324242678596 269.48200091807405 5.337784361564282 269.51868063461006 C 5.342326296342603 269.555360351146 5.3446059028595325 269.592320182637 5.3446059028595325 269.629280096208 " stroke="#191919" stroke-width="0.35 px" style="stroke-width:0.35;stroke-miterlimit:4;stroke-dasharray:none;stroke-linecap:square;fill:none;fill-opacity:1;fill-rule: evenodd"/>
<circle cx="52.87625987298534" cy="274.96199945055" r="0.8999999999999986" stroke="#191919" stroke-width="0.35 px" style="stroke-width:0.35;stroke-miterlimit:4;stroke-dasharray:none;stroke-linecap:square;fill:none"/>
<title>b'lids'</title>
</g>
</svg>