  0
SECTION
  2
HEADER
  9
$ACADVER
  1
AC1009
  9
$INSBASE
 10
0.0
 20
0.0
 30
0.0
  9
$EXTMIN
 10
0.0
 20
0.0
 30
0.0
  9
$EXTMAX
 10
0.0
 20
0.0
 30
0.0
  0
ENDSEC
  0
SECTION
  2
TABLES
  0
TABLE
  2
VPORT
 70
0
  0
ENDTAB
  0
TABLE
  2
LTYPE
 70
1
  0
LTYPE
  2
CONTINUOUS
 70
0
  3
Solid line
 72
65
 73
0
 40
0.0
  0
ENDTAB
  0
TABLE
  2
LAYER
 70
1
  0
LAYER
  2
0
 70
64
 62
7
  6
continuous
  0
ENDTAB
  0
TABLE
  2
STYLE
 70
1
  0
STYLE
  2
STANDARD
 70
0
 40
0
 41
1.0
 50
0.0
 71
0
 42
1
 3
ARIAL.TTF
 4

  0
ENDTAB
  0
TABLE
  2
VIEW
 70
0
  0
ENDTAB
  0
ENDSEC
  0
SECTION
  2
BLOCKS
  0
BLOCK
  8
0
  2
INSERTS
 70
0
 10
0.0
 20
0.0
 30
0.0
  3
INSERTS
  0
ARC
  8
0
 62
0
 10
0.0
 20
0.0
 30
0.0
 40
283.08352148603757
 50
79.07710519005542
 51
101.54018074525432
  0
POLYLINE
  8
0
 62
0
 70
0
 66
1
 10
0.0
 20
0.0
 30
0.0
  0
VERTEX
  8
0
 10
57.83158296716713
 20
260.662288452352
 30
0.0
  0
VERTEX
  8
0
 10
53.07983646373805
 20
261.67124825981034
 30
0.0
  0
VERTEX
  8
0
 10
48.31051957644947
 20
262.59359070942224
 30
0.0
  0
VERTEX
  8
0
 10
43.52521603171783
 20
263.4290363484231
 30
0.0
  0
VERTEX
  8
0
 10
38.72550955595954
 20
264.17730572404815
 30
0.0
  0
VERTEX
  8
0
 10
33.91298390055262
 20
264.83811956905504
 30
0.0
  0
VERTEX
  8
0
 10
29.089228108736602
 20
265.41123794691026
 30
0.0
  0
VERTEX
  8
0
 10
24.255843030593013
 20
265.89650867308677
 30
0.0
  0
VERTEX
  8
0
 10
19.414431113746442
 20
266.29379143647895
 30
0.0
  0
VERTEX
  8
0
 10
14.566594805821499
 20
266.6029459259814
 30
0.0
  0
VERTEX
  8
0
 10
9.71393661848442
 20
266.8238333271031
 30
0.0
  0
VERTEX
  8
0
 10
4.8580615530196845
 20
266.95637300624827
 30
0.0
  0
VERTEX
  8
0
 10
0.0005778448139714953
 20
267.0005599088614
 30
0.0
  0
VERTEX
  8
0
 10
-4.856906054605549
 20
266.9563940314614
 30
0.0
  0
VERTEX
  8
0
 10
-9.712781693711726
 20
266.82387537056724
 30
0.0
  0
VERTEX
  8
0
 10
-14.565440837096027
 20
266.60300897377334
 30
0.0
  0
VERTEX
  8
0
 10
-19.41327848312494
 20
266.2938754677285
 30
0.0
  0
VERTEX
  8
0
 10
-24.25469211953142
 20
265.8966136599872
 30
0.0
  0
VERTEX
  8
0
 10
-29.088079298083557
 20
265.41136385471896
 30
0.0
  0
VERTEX
  8
0
 10
-33.9118375705494
 20
264.8382663560932
 30
0.0
  0
VERTEX
  8
0
 10
-38.72436608618878
 20
264.1774733417079
 30
0.0
  0
VERTEX
  8
0
 10
-43.52407580072362
 20
263.4292247412185
 30
0.0
  0
VERTEX
  8
0
 10
-48.30938296156711
 20
262.59379981501223
 30
0.0
  0
VERTEX
  8
0
 10
-53.07870384109329
 20
261.67147800899886
 30
0.0
  0
VERTEX
  8
0
 10
-57.83045471167617
 20
260.662538769088
 30
0.0
  0
SEQEND
  8
0
  0
LINE
  8
0
 62
0
 10
55.28797871902263
 20
271.021231087715
 30
0.0
 11
58.437480305519635
 21
263.599756657016
 31
0.0
  0
LINE
  8
0
 62
0
 10
58.437480305519635
 20
263.599756657016
 30
0.0
 11
57.83158296716723
 21
260.662288452352
 31
0.0
  0
CIRCLE
  8
0
 62
0
 10
-4.444605902859377
 20
269.629280096208
 30
0.0
 40
0.9000000000000004
  0
ARC
  8
0
 62
0
 10
53.07698593815404
 20
275.032966420235
 30
0.0
 40
2.9758652997182655
 50
-11.373868330851915
 51
79.07710519004554
  0
LINE
  8
0
 62
0
 10
55.99440887676474
 20
274.44609532763
 30
0.0
 11
55.28797871902263
 21
271.021231087715
 31
0.0
  0
ARC
  8
0
 62
0
 10
0.0
 20
0.0
 30
0.0
 40
275.09663522588284
 50
101.52612686083492
 51
102.50900051706928
  0
LINE
  8
0
 62
0
 10
-54.96836789387096
 20
269.548951479479
 30
0.0
 11
-56.63230024795026
 21
277.360888925533
 31
0.0
  0
POLYLINE
  8
0
 62
0
 70
0
 66
1
 10
0.0
 20
0.0
 30
0.0
  0
VERTEX
  8
0
 10
5.3446059028595325
 20
269.629280096208
 30
0.0
  0
VERTEX
  8
0
 10
3.5446064448566235
 20
269.6292800962085
 30
0.0
  0
VERTEX
  8
0
 10
5.3446059028595325
 20
269.629280096208
 30
0.0
  0
SEQEND
  8
0
  0
CIRCLE
  8
0
 62
0
 10
52.87625987298534
 20
274.96199945055
 30
0.0
 40
0.8999999999999986
  0
CIRCLE
  8
0
 62
0
 10
-52.876259872985166
 20
274.96199945055
 30
0.0
 40
0.8999999999999986
  0
LINE
  8
0
 62
0
 10
-59.58399899252746
 20
268.566389886487
 30
0.0
 11
-57.83045471167617
 21
260.662538769088
 31
0.0
  0
ARC
  8
0
 62
0
 10
0.0
 20
0.0
 30
0.0
 40
283.0835214860371
 50
109.07710519005539
 51
131.5401807452544
  0
POLYLINE
  8
0
 62
0
 70
0
 66
1
 10
0.0
 20
0.0
 30
0.0
  0
VERTEX
  8
0
 10
-80.24752423554168
 20
254.655955091908
 30
0.0
  0
VERTEX
  8
0
 10
-84.86713732358439
 20
253.1538666648498
 30
0.0
  0
VERTEX
  8
0
 10
-89.45865813148042
 20
251.5679802135581
 30
0.0
  0
VERTEX
  8
0
 10
-94.02057538553817
 20
249.89884558804772
 30
0.0
  0
VERTEX
  8
0
 10
-98.55137781206608
 20
248.14701263833362
 30
0.0
  0
VERTEX
  8
0
 10
-103.04955420851628
 20
246.31303138757843
 30
0.0
  0
VERTEX
  8
0
 10
-107.51360845480892
 20
244.39748856626872
 30
0.0
  0
VERTEX
  8
0
 10
-111.94207808184217
 20
242.40105280377867
 30
0.0
  0
VERTEX
  8
0
 10
-116.33350517371215
 20
240.3244038109387
 30
0.0
  0
VERTEX
  8
0
 10
-120.68643181451492
 20
238.16822129857934
 30
0.0
  0
VERTEX
  8
0
 10
-124.99940078119224
 20
235.93318630565815
 30
0.0
  0
VERTEX
  8
0
 10
-129.27098178506068
 20
233.62003150207494
 30
0.0
  0
VERTEX
  8
0
 10
-133.49977952614236
 20
231.22955662814954
 30
0.0
  0
VERTEX
  8
0
 10
-137.68440104281348
 20
228.76256590663093
 30
0.0
  0
VERTEX
  8
0
 10
-141.82345337345026
 20
226.21986356026804
 30
0.0
  0
VERTEX
  8
0
 10
-145.91554626913086
 20
223.60225807811005
 30
0.0
  0
VERTEX
  8
0
 10
-149.95933007099197
 20
220.91062178569985
 30
0.0
  0
VERTEX
  8
0
 10
-153.95348636647765
 20
218.1458761500394
 30
0.0
  0
VERTEX
  8
0
 10
-157.89669754679565
 20
215.3089439022197
 30
0.0
  0
VERTEX
  8
0
 10
-161.78764600315358
 20
212.40074777333166
 30
0.0
  0
VERTEX
  8
0
 10
-165.6250214469417
 20
209.42221997841114
 30
0.0
  0
VERTEX
  8
0
 10
-169.40756769027524
 20
206.3743628247738
 30
0.0
  0
VERTEX
  8
0
 10
-173.1340527933743
 20
203.25821003530274
 30
0.0
  0
VERTEX
  8
0
 10
-176.80324493083688
 20
200.0747954810676
 30
0.0
  0
VERTEX
  8
0
 10
-180.41391227726098
 20
196.82515303313804
 30
0.0
  0
SEQEND
  8
0
  0
LINE
  8
0
 62
0
 10
-87.62982144929047
 20
262.355260446405
 30
0.0
 11
-81.19153585077527
 21
257.502825849132
 31
0.0
  0
LINE
  8
0
 62
0
 10
-81.19153585077527
 20
257.502825849132
 30
0.0
 11
-80.24752423554177
 21
254.655955091908
 31
0.0
  0
CIRCLE
  8
0
 62
0
 10
-138.66378166979098
 20
231.28350321599703
 30
0.0
 40
0.8999999999999845
  0
ARC
  8
0
 62
0
 10
-91.55046503136667
 20
264.724028767193
 30
0.0
 40
2.9758652997181607
 50
18.626131669155292
 51
109.07710519004569
  0
LINE
  8
0
 62
0
 10
-88.73046710664407
 20
265.674494961556
 30
0.0
 11
-87.62982144929047
 21
262.355260446405
 31
0.0
  0
ARC
  8
0
 62
0
 10
0.0
 20
0.0
 30
0.0
 40
275.09663522588215
 50
131.52612686083486
 51
132.5090005170692
  0
LINE
  8
0
 62
0
 10
-182.37847874039997
 20
205.95205559775204
 30
0.0
 11
-187.72545515223896
 21
211.88542570177003
 31
0.0
  0
POLYLINE
  8
0
 62
0
 70
0
 66
1
 10
0.0
 20
0.0
 30
0.0
  0
VERTEX
  8
0
 10
-130.18607556301197
 20
236.17810911885604
 30
0.0
  0
VERTEX
  8
0
 10
-131.74492082044017
 20
235.2781093898551
 30
0.0
  0
VERTEX
  8
0
 10
-130.18607556301197
 20
236.17810911885604
 30
0.0
  0
SEQEND
  8
0
  0
CIRCLE
  8
0
 62
0
 10
-91.68881541816218
 20
264.562206536032
 30
0.0
 40
0.8999999999999915
  0
CIRCLE
  8
0
 62
0
 10
-183.27318403238797
 20
211.68594666304702
 30
0.0
 40
0.9000000000000057
  0
LINE
  8
0
 62
0
 10
-185.88445172983896
 20
202.79331674811002
 30
0.0
 11
-180.41391227726098
 21
196.82515303313804
 31
0.0
  0
ARC
  8
0
 62
0
 10
0.0
 20
0.0
 30
0.0
 40
283.08352148603717
 50
139.0771051900555
 51
161.54018074525433
  0
POLYLINE
  8
0
 62
0
 70
0
 66
1
 10
0.0
 20
0.0
 30
0.0
  0
VERTEX
  8
0
 10
-196.82437212473997
 20
180.41476421681003
 30
0.0
  0
VERTEX
  8
0
 10
-200.0740302011113
 20
176.80411093622575
 30
0.0
  0
VERTEX
  8
0
 10
-203.2574606371085
 20
173.13493257794173
 30
0.0
  0
VERTEX
  8
0
 10
-206.37362955633
 20
169.40846096288482
 30
0.0
  0
VERTEX
  8
0
 10
-209.42150308237436
 20
165.62592791198202
 30
0.0
  0
VERTEX
  8
0
 10
-212.40004748702617
 20
161.78856536053874
 30
0.0
  0
VERTEX
  8
0
 10
-215.30826045753247
 20
157.89762949210134
 30
0.0
  0
VERTEX
  8
0
 10
-218.14520977318597
 20
153.9544305912446
 30
0.0
  0
VERTEX
  8
0
 10
-220.90997269719253
 20
149.96028626276683
 30
0.0
  0
VERTEX
  8
0
 10
-223.60162649275804
 20
145.91651411146648
 30
0.0
  0
VERTEX
  8
0
 10
-226.2192496871739
 20
141.82443254591092
 30
0.0
  0
VERTEX
  8
0
 10
-228.7619699490554
 20
137.68539122118764
 30
0.0
  0
VERTEX
  8
0
 10
-231.22897878333575
 20
133.50078038271906
 30
0.0
  0
VERTEX
  8
0
 10
-233.61947196123668
 20
129.2719929886479
 30
0.0
  0
VERTEX
  8
0
 10
-235.93264525397996
 20
125.0004219971169
 30
0.0
  0
VERTEX
  8
0
 10
-238.1676989152063
 20
120.68746270464227
 30
0.0
  0
VERTEX
  8
0
 10
-240.323900268825
 20
116.3345453967362
 30
0.0
  0
VERTEX
  8
0
 10
-242.40056826957104
 20
111.94312729350911
 30
0.0
  0
VERTEX
  8
0
 10
-244.39702320030344
 20
107.51466630792278
 30
0.0
  0
VERTEX
  8
0
 10
-246.3125853438812
 20
103.05062035293913
 30
0.0
  0
VERTEX
  8
0
 10
-248.1465860646
 20
98.5524518947658
 30
0.0
  0
VERTEX
  8
0
 10
-249.89843862549745
 20
94.02165705094303
 30
0.0
  0
VERTEX
  8
0
 10
-251.5675929968698
 20
89.45974702163795
 30
0.0
  0
VERTEX
  8
0
 10
-253.15349932216074
 20
84.86823307816209
 30
0.0
  0
VERTEX
  8
0
 10
-254.655607744814
 20
80.24862649182703
 30
0.0
  0
SEQEND
  8
0
  0
LINE
  8
0
 62
0
 10
-207.06728172738298
 20
183.39140963842502
 30
0.0
 11
-199.06534554361198
 21
182.40822080624102
 31
0.0
  0
LINE
  8
0
 62
0
 10
-199.06534554361198
 20
182.40822080624102
 30
0.0
 11
-196.82437212473997
 21
180.41476421681003
 31
0.0
  0
CIRCLE
  8
0
 62
0
 10
-235.72810911885597
 20
130.96549842641804
 30
0.0
 40
0.9000000000000233
  0
ARC
  8
0
 62
0
 10
-211.64704282903898
 20
183.48250138886803
 30
0.0
 40
2.975865299718404
 50
48.6261316691503
 51
139.07710519004854
  0
LINE
  8
0
 62
0
 10
-209.68008608479096
 20
185.71562822098602
 30
0.0
 11
-207.06728172738298
 21
183.39140963842502
 31
0.0
  0
ARC
  8
0
 62
0
 10
0.0
 20
0.0
 30
0.0
 40
275.09663522588255
 50
161.52612686083495
 51
162.50900051706927
  0
LINE
  8
0
 62
0
 10
-260.920423491623
 20
87.17047273907824
 30
0.0
 11
-268.517725949721
 21
89.63543377329373
 31
0.0
  0
POLYLINE
  8
0
 62
0
 70
0
 66
1
 10
0.0
 20
0.0
 30
0.0
  0
VERTEX
  8
0
 10
-230.83350321599698
 20
139.44320453319702
 30
0.0
  0
VERTEX
  8
0
 10
-231.73350294499792
 20
137.88435927576833
 30
0.0
  0
VERTEX
  8
0
 10
-230.83350321599698
 20
139.44320453319702
 30
0.0
  0
SEQEND
  8
0
  0
CIRCLE
  8
0
 62
0
 10
-211.68594666304696
 20
183.27318403238803
 30
0.0
 40
0.9000000000000057
  0
CIRCLE
  8
0
 62
0
 10
-264.562206536032
 20
91.68881541816233
 30
0.0
 40
0.8999999999999773
  0
LINE
  8
0
 62
0
 10
-262.377315740638
 20
82.68193815664853
 30
0.0
 11
-254.655607744814
 21
80.24862649182693
 31
0.0
  0
ARC
  8
0
 62
0
 10
0.0
 20
0.0
 30
0.0
 40
283.08352148603757
 50
169.07710519005545
 51
-168.45981925474564
  0
POLYLINE
  8
0
 62
0
 70
0
 66
1
 10
0.0
 20
0.0
 30
0.0
  0
VERTEX
  8
0
 10
-260.662288452352
 20
57.83158296716713
 30
0.0
  0
VERTEX
  8
0
 10
-261.67124825981034
 20
53.07983646373805
 30
0.0
  0
VERTEX
  8
0
 10
-262.59359070942224
 20
48.31051957644947
 30
0.0
  0
VERTEX
  8
0
 10
-263.4290363484231
 20
43.52521603171783
 30
0.0
  0
VERTEX
  8
0
 10
-264.17730572404815
 20
38.72550955595955
 30
0.0
  0
VERTEX
  8
0
 10
-264.83811956905504
 20
33.91298390055264
 30
0.0
  0
VERTEX
  8
0
 10
-265.41123794691026
 20
29.08922810873664
 30
0.0
  0
VERTEX
  8
0
 10
-265.89650867308677
 20
24.255843030593063
 30
0.0
  0
VERTEX
  8
0
 10
-266.29379143647895
 20
19.414431113746506
 30
0.0
  0
VERTEX
  8
0
 10
-266.6029459259814
 20
14.56659480582157
 30
0.0
  0
VERTEX
  8
0
 10
-266.8238333271031
 20
9.713936618484487
 30
0.0
  0
VERTEX
  8
0
 10
-266.95637300624827
 20
4.858061553019745
 30
0.0
  0
VERTEX
  8
0
 10
-267.0005599088614
 20
0.000577844814019457
 30
0.0
  0
VERTEX
  8
0
 10
-266.9563940314614
 20
-4.856906054605513
 30
0.0
  0
VERTEX
  8
0
 10
-266.82387537056724
 20
-9.712781693711705
 30
0.0
  0
VERTEX
  8
0
 10
-266.60300897377334
 20
-14.56544083709602
 30
0.0
  0
VERTEX
  8
0
 10
-266.2938754677285
 20
-19.41327848312494
 30
0.0
  0
VERTEX
  8
0
 10
-265.8966136599872
 20
-24.25469211953142
 30
0.0
  0
VERTEX
  8
0
 10
-265.41136385471896
 20
-29.08807929808356
 30
0.0
  0
VERTEX
  8
0
 10
-264.8382663560932
 20
-33.91183757054941
 30
0.0
  0
VERTEX
  8
0
 10
-264.1774733417079
 20
-38.72436608618878
 30
0.0
  0
VERTEX
  8
0
 10
-263.4292247412185
 20
-43.52407580072362
 30
0.0
  0
VERTEX
  8
0
 10
-262.59379981501223
 20
-48.30938296156711
 30
0.0
  0
VERTEX
  8
0
 10
-261.67147800899886
 20
-53.07870384109329
 30
0.0
  0
VERTEX
  8
0
 10
-260.662538769088
 20
-57.83045471167617
 30
0.0
  0
SEQEND
  8
0
  0
LINE
  8
0
 62
0
 10
-271.021231087715
 20
55.28797871902274
 30
0.0
 11
-263.599756657016
 21
58.437480305519635
 31
0.0
  0
LINE
  8
0
 62
0
 10
-263.599756657016
 20
58.437480305519635
 30
0.0
 11
-260.662288452352
 21
57.83158296716723
 31
0.0
  0
CIRCLE
  8
0
 62
0
 10
-269.629280096208
 20
-4.444605902859357
 30
0.0
 40
0.9000000000000004
  0
ARC
  8
0
 62
0
 10
-275.032966420235
 20
53.07698593815404
 30
0.0
 40
2.9758652997182655
 50
78.62613166914811
 51
169.07710519004556
  0
LINE
  8
0
 62
0
 10
-274.44609532763
 20
55.99440887676474
 30
0.0
 11
-271.021231087715
 21
55.28797871902274
 31
0.0
  0
ARC
  8
0
 62
0
 10
0.0
 20
0.0
 30
0.0
 40
275.09663522588284
 50
-168.4738731391651
 51
-167.4909994829307
  0
LINE
  8
0
 62
0
 10
-269.548951479479
 20
-54.96836789387086
 30
0.0
 11
-277.360888925533
 21
-56.63230024795026
 31
0.0
  0
POLYLINE
  8
0
 62
0
 70
0
 66
1
 10
0.0
 20
0.0
 30
0.0
  0
VERTEX
  8
0
 10
-269.629280096208
 20
5.344605902859553
 30
0.0
  0
VERTEX
  8
0
 10
-269.6292800962085
 20
3.5446064448566434
 30
0.0
  0
VERTEX
  8
0
 10
-269.629280096208
 20
5.344605902859553
 30
0.0
  0
SEQEND
  8
0
  0
CIRCLE
  8
0
 62
0
 10
-274.96199945055
 20
52.87625987298534
 30
0.0
 40
0.8999999999999773
  0
CIRCLE
  8
0
 62
0
 10
-274.96199945055
 20
-52.876259872985166
 30
0.0
 40
0.8999999999999773
  0
LINE
  8
0
 62
0
 10
-268.566389886487
 20
-59.58399899252746
 30
0.0
 11
-260.662538769088
 21
-57.83045471167617
 31
0.0
  0
ARC
  8
0
 62
0
 10
0.0
 20
0.0
 30
0.0
 40
283.08352148603717
 50
-160.92289480994458
 51
-138.4598192547456
  0
POLYLINE
  8
0
 62
0
 70
0
 66
1
 10
0.0
 20
0.0
 30
0.0
  0
VERTEX
  8
0
 10
-254.655955091908
 20
-80.24752423554168
 30
0.0
  0
VERTEX
  8
0
 10
-253.15386666484986
 20
-84.86713732358439
 30
0.0
  0
VERTEX
  8
0
 10
-251.56798021355826
 20
-89.45865813148042
 30
0.0
  0
VERTEX
  8
0
 10
-249.89884558804806
 20
-94.02057538553817
 30
0.0
  0
VERTEX
  8
0
 10
-248.14701263833413
 20
-98.55137781206608
 30
0.0
  0
VERTEX
  8
0
 10
-246.31303138757906
 20
-103.04955420851628
 30
0.0
  0
VERTEX
  8
0
 10
-244.39748856626932
 20
-107.51360845480892
 30
0.0
  0
VERTEX
  8
0
 10
-242.40105280377915
 20
-111.94207808184217
 30
0.0
  0
VERTEX
  8
0
 10
-240.3244038109391
 20
-116.33350517371215
 30
0.0
  0
VERTEX
  8
0
 10
-238.16822129857957
 20
-120.68643181451492
 30
0.0
  0
VERTEX
  8
0
 10
-235.9331863056583
 20
-124.99940078119224
 30
0.0
  0
VERTEX
  8
0
 10
-233.620031502075
 20
-129.27098178506068
 30
0.0
  0
VERTEX
  8
0
 10
-231.22955662814957
 20
-133.49977952614236
 30
0.0
  0
VERTEX
  8
0
 10
-228.76256590663095
 20
-137.68440104281353
 30
0.0
  0
VERTEX
  8
0
 10
-226.21986356026804
 20
-141.82345337345038
 30
0.0
  0
VERTEX
  8
0
 10
-223.60225807811005
 20
-145.9155462691311
 30
0.0
  0
VERTEX
  8
0
 10
-220.91062178569985
 20
-149.95933007099234
 30
0.0
  0
VERTEX
  8
0
 10
-218.1458761500394
 20
-153.95348636647816
 30
0.0
  0
VERTEX
  8
0
 10
-215.3089439022197
 20
-157.89669754679625
 30
0.0
  0
VERTEX
  8
0
 10
-212.40074777333166
 20
-161.78764600315418
 30
0.0
  0
VERTEX
  8
0
 10
-209.42221997841114
 20
-165.62502144694224
 30
0.0
  0
VERTEX
  8
0
 10
-206.3743628247738
 20
-169.40756769027564
 30
0.0
  0
VERTEX
  8
0
 10
-203.25821003530274
 20
-173.1340527933745
 30
0.0
  0
VERTEX
  8
0
 10
-200.0747954810676
 20
-176.80324493083694
 30
0.0
  0
VERTEX
  8
0
 10
-196.82515303313804
 20
-180.41391227726098
 30
0.0
  0
SEQEND
  8
0
  0
LINE
  8
0
 62
0
 10
-262.355260446405
 20
-87.62982144929038
 30
0.0
 11
-257.502825849132
 21
-81.19153585077527
 31
0.0
  0
LINE
  8
0
 62
0
 10
-257.502825849132
 20
-81.19153585077527
 30
0.0
 11
-254.655955091908
 21
-80.24752423554177
 31
0.0
  0
CIRCLE
  8
0
 62
0
 10
-231.28350321599703
 20
-138.66378166979098
 30
0.0
 40
0.8999999999999845
  0
ARC
  8
0
 62
0
 10
-264.724028767193
 20
-91.55046503136667
 30
0.0
 40
2.9758652997181607
 50
108.6261316691553
 51
-160.92289480995623
  0
LINE
  8
0
 62
0
 10
-265.674494961556
 20
-88.73046710664407
 30
0.0
 11
-262.355260446405
 21
-87.62982144929038
 31
0.0
  0
ARC
  8
0
 62
0
 10
0.0
 20
0.0
 30
0.0
 40
275.09663522588215
 50
-138.4738731391651
 51
-137.49099948293065
  0
LINE
  8
0
 62
0
 10
-205.95205559775204
 20
-182.37847874039997
 30
0.0
 11
-211.88542570177003
 21
-187.72545515223896
 31
0.0
  0
POLYLINE
  8
0
 62
0
 70
0
 66
1
 10
0.0
 20
0.0
 30
0.0
  0
VERTEX
  8
0
 10
-236.17810911885604
 20
-130.18607556301097
 30
0.0
  0
VERTEX
  8
0
 10
-235.2781093898551
 20
-131.74492082044017
 30
0.0
  0
VERTEX
  8
0
 10
-236.17810911885604
 20
-130.18607556301097
 30
0.0
  0
SEQEND
  8
0
  0
CIRCLE
  8
0
 62
0
 10
-264.562206536032
 20
-91.68881541816218
 30
0.0
 40
0.8999999999999773
  0
CIRCLE
  8
0
 62
0
 10
-211.68594666304702
 20
-183.27318403238797
 30
0.0
 40
0.9000000000000057
  0
LINE
  8
0
 62
0
 10
-202.79331674811002
 20
-185.88445172983896
 30
0.0
 11
-196.82515303313804
 21
-180.41391227726098
 31
0.0
  0
ARC
  8
0
 62
0
 10
0.0
 20
0.0
 30
0.0
 40
283.08352148603717
 50
-130.9228948099445
 51
-108.45981925474561
  0
POLYLINE
  8
0
 62
0
 70
0
 66
1
 10
0.0
 20
0.0
 30
0.0
  0
VERTEX
  8
0
 10
-180.41476421681003
 20
-196.82437212473997
 30
0.0
  0
VERTEX
  8
0
 10
-176.80411093622575
 20
-200.0740302011113
 30
0.0
  0
VERTEX
  8
0
 10
-173.13493257794173
 20
-203.2574606371085
 30
0.0
  0
VERTEX
  8
0
 10
-169.40846096288482
 20
-206.37362955633
 30
0.0
  0
VERTEX
  8
0
 10
-165.62592791198202
 20
-209.42150308237436
 30
0.0
  0
VERTEX
  8
0
 10
-161.78856536053874
 20
-212.40004748702617
 30
0.0
  0
VERTEX
  8
0
 10
-157.89762949210134
 20
-215.30826045753247
 30
0.0
  0
VERTEX
  8
0
 10
-153.9544305912446
 20
-218.14520977318597
 30
0.0
  0
VERTEX
  8
0
 10
-149.96028626276683
 20
-220.90997269719253
 30
0.0
  0
VERTEX
  8
0
 10
-145.91651411146648
 20
-223.60162649275804
 30
0.0
  0
VERTEX
  8
0
 10
-141.82443254591092
 20
-226.2192496871739
 30
0.0
  0
VERTEX
  8
0
 10
-137.68539122118764
 20
-228.7619699490554
 30
0.0
  0
VERTEX
  8
0
 10
-133.50078038271906
 20
-231.22897878333575
 30
0.0
  0
VERTEX
  8
0
 10
-129.2719929886479
 20
-233.61947196123668
 30
0.0
  0
VERTEX
  8
0
 10
-125.0004219971169
 20
-235.93264525397996
 30
0.0
  0
VERTEX
  8
0
 10
-120.68746270464227
 20
-238.1676989152063
 30
0.0
  0
VERTEX
  8
0
 10
-116.3345453967362
 20
-240.323900268825
 30
0.0
  0
VERTEX
  8
0
 10
-111.94312729350911
 20
-242.40056826957104
 30
0.0
  0
VERTEX
  8
0
 10
-107.51466630792278
 20
-244.39702320030344
 30
0.0
  0
VERTEX
  8
0
 10
-103.05062035293913
 20
-246.3125853438812
 30
0.0
  0
VERTEX
  8
0
 10
-98.5524518947658
 20
-248.1465860646
 30
0.0
  0
VERTEX
  8
0
 10
-94.02165705094303
 20
-249.89843862549745
 30
0.0
  0
VERTEX
  8
0
 10
-89.45974702163795
 20
-251.5675929968698
 30
0.0
  0
VERTEX
  8
0
 10
-84.86823307816209
 20
-253.15349932216074
 30
0.0
  0
VERTEX
  8
0
 10
-80.24862649182703
 20
-254.655607744814
 30
0.0
  0
SEQEND
  8
0
  0
LINE
  8
0
 62
0
 10
-183.39140963842502
 20
-207.06728172738298
 30
0.0
 11
-182.40822080624102
 21
-199.06534554361198
 31
0.0
  0
LINE
  8
0
 62
0
 10
-182.40822080624102
 20
-199.06534554361198
 30
0.0
 11
-180.41476421681003
 21
-196.82437212473997
 31
0.0
  0
CIRCLE
  8
0
 62
0
 10
-130.96549842641804
 20
-235.72810911885597
 30
0.0
 40
0.9000000000000233
  0
ARC
  8
0
 62
0
 10
-183.48250138886803
 20
-211.64704282903898
 30
0.0
 40
2.975865299718404
 50
138.6261316691503
 51
-130.92289480995146
  0
LINE
  8
0
 62
0
 10
-185.71562822098602
 20
-209.68008608479096
 30
0.0
 11
-183.39140963842502
 21
-207.06728172738298
 31
0.0
  0
ARC
  8
0
 62
0
 10
0.0
 20
0.0
 30
0.0
 40
275.09663522588255
 50
-108.47387313916505
 51
-107.49099948293075
  0
LINE
  8
0
 62
0
 10
-87.17047273907833
 20
-260.920423491623
 30
0.0
 11
-89.63543377329373
 21
-268.517725949721
 31
0.0
  0
POLYLINE
  8
0
 62
0
 70
0
 66
1
 10
0.0
 20
0.0
 30
0.0
  0
VERTEX
  8
0
 10
-139.44320453319702
 20
-230.83350321599698
 30
0.0
  0
VERTEX
  8
0
 10
-137.88435927576833
 20
-231.73350294499792
 30
0.0
  0
VERTEX
  8
0
 10
-139.44320453319702
 20
-230.83350321599698
 30
0.0
  0
SEQEND
  8
0
  0
CIRCLE
  8
0
 62
0
 10
-183.27318403238803
 20
-211.68594666304696
 30
0.0
 40
0.9000000000000057
  0
CIRCLE
  8
0
 62
0
 10
-91.68881541816243
 20
-264.562206536032
 30
0.0
 40
0.8999999999999915
  0
LINE
  8
0
 62
0
 10
-82.68193815664863
 20
-262.377315740638
 30
0.0
 11
-80.24862649182693
 21
-254.655607744814
 31
0.0
  0
ARC
  8
0
 62
0
 10
0.0
 20
0.0
 30
0.0
 40
283.08352148603757
 50
-100.9228948099446
 51
-78.45981925474567
  0
POLYLINE
  8
0
 62
0
 70
0
 66
1
 10
0.0
 20
0.0
 30
0.0
  0
VERTEX
  8
0
 10
-57.83158296716733
 20
-260.662288452352
 30
0.0
  0
VERTEX
  8
0
 10
-53.079836463738246
 20
-261.67124825981034
 30
0.0
  0
VERTEX
  8
0
 10
-48.31051957644968
 20
-262.59359070942224
 30
0.0
  0
VERTEX
  8
0
 10
-43.52521603171804
 20
-263.4290363484231
 30
0.0
  0
VERTEX
  8
0
 10
-38.72550955595975
 20
-264.17730572404815
 30
0.0
  0
VERTEX
  8
0
 10
-33.912983900552845
 20
-264.83811956905504
 30
0.0
  0
VERTEX
  8
0
 10
-29.089228108736844
 20
-265.41123794691026
 30
0.0
  0
VERTEX
  8
0
 10
-24.25584303059327
 20
-265.89650867308677
 30
0.0
  0
VERTEX
  8
0
 10
-19.414431113746705
 20
-266.29379143647895
 30
0.0
  0
VERTEX
  8
0
 10
-14.566594805821762
 20
-266.6029459259814
 30
0.0
  0
VERTEX
  8
0
 10
-9.713936618484666
 20
-266.8238333271031
 30
0.0
  0
VERTEX
  8
0
 10
-4.858061553019912
 20
-266.95637300624827
 30
0.0
  0
VERTEX
  8
0
 10
-0.0005778448141704473
 20
-267.0005599088614
 30
0.0
  0
VERTEX
  8
0
 10
4.856906054605378
 20
-266.9563940314614
 30
0.0
  0
VERTEX
  8
0
 10
9.71278169371158
 20
-266.82387537056724
 30
0.0
  0
VERTEX
  8
0
 10
14.56544083709591
 20
-266.60300897377334
 30
0.0
  0
VERTEX
  8
0
 10
19.413278483124838
 20
-266.2938754677285
 30
0.0
  0
VERTEX
  8
0
 10
24.25469211953132
 20
-265.8966136599872
 30
0.0
  0
VERTEX
  8
0
 10
29.08807929808346
 20
-265.41136385471896
 30
0.0
  0
VERTEX
  8
0
 10
33.91183757054931
 20
-264.8382663560932
 30
0.0
  0
VERTEX
  8
0
 10
38.72436608618868
 20
-264.1774733417079
 30
0.0
  0
VERTEX
  8
0
 10
43.52407580072352
 20
-263.4292247412185
 30
0.0
  0
VERTEX
  8
0
 10
48.30938296156701
 20
-262.59379981501223
 30
0.0
  0
VERTEX
  8
0
 10
53.07870384109319
 20
-261.67147800899886
 30
0.0
  0
VERTEX
  8
0
 10
57.83045471167607
 20
-260.662538769088
 30
0.0
  0
SEQEND
  8
0
  0
LINE
  8
0
 62
0
 10
-55.28797871902284
 20
-271.021231087715
 30
0.0
 11
-58.437480305519735
 21
-263.599756657016
 31
0.0
  0
LINE
  8
0
 62
0
 10
-58.437480305519735
 20
-263.599756657016
 30
0.0
 11
-57.83158296716733
 21
-260.662288452352
 31
0.0
  0
CIRCLE
  8
0
 62
0
 10
4.444605902859217
 20
-269.629280096208
 30
0.0
 40
0.9000000000000004
  0
ARC
  8
0
 62
0
 10
-53.07698593815424
 20
-275.032966420235
 30
0.0
 40
2.975865299718168
 50
168.62613166914772
 51
-100.92289480995272
  0
LINE
  8
0
 62
0
 10
-55.99440887676484
 20
-274.44609532763
 30
0.0
 11
-55.28797871902284
 21
-271.021231087715
 31
0.0
  0
ARC
  8
0
 62
0
 10
0.0
 20
0.0
 30
0.0
 40
275.09663522588284
 50
-78.47387313916508
 51
-77.49099948293075
  0
LINE
  8
0
 62
0
 10
54.96836789387076
 20
-269.548951479479
 30
0.0
 11
56.63230024795016
 21
-277.360888925533
 31
0.0
  0
POLYLINE
  8
0
 62
0
 70
0
 66
1
 10
0.0
 20
0.0
 30
0.0
  0
VERTEX
  8
0
 10
-5.344605902859693
 20
-269.629280096208
 30
0.0
  0
VERTEX
  8
0
 10
-3.5446064448567736
 20
-269.6292800962085
 30
0.0
  0
VERTEX
  8
0
 10
-5.344605902859693
 20
-269.629280096208
 30
0.0
  0
SEQEND
  8
0
  0
CIRCLE
  8
0
 62
0
 10
-52.876259872985536
 20
-274.96199945055
 30
0.0
 40
0.8999999999999986
  0
CIRCLE
  8
0
 62
0
 10
52.87625987298507
 20
-274.961999450551
 30
0.0
 40
0.8999999999999986
  0
LINE
  8
0
 62
0
 10
59.58399899252726
 20
-268.566389886487
 30
0.0
 11
57.83045471167607
 21
-260.662538769088
 31
0.0
  0
ARC
  8
0
 62
0
 10
0.0
 20
0.0
 30
0.0
 40
283.08352148603706
 50
-70.92289480994464
 51
-48.45981925474562
  0
POLYLINE
  8
0
 62
0
 70
0
 66
1
 10
0.0
 20
0.0
 30
0.0
  0
VERTEX
  8
0
 10
80.24752423554148
 20
-254.655955091908
 30
0.0
  0
VERTEX
  8
0
 10
84.8671373235842
 20
-253.1538666648498
 30
0.0
  0
VERTEX
  8
0
 10
89.45865813148026
 20
-251.5679802135581
 30
0.0
  0
VERTEX
  8
0
 10
94.02057538553805
 20
-249.89884558804772
 30
0.0
  0
VERTEX
  8
0
 10
98.55137781206601
 20
-248.14701263833362
 30
0.0
  0
VERTEX
  8
0
 10
103.04955420851626
 20
-246.31303138757843
 30
0.0
  0
VERTEX
  8
0
 10
107.5136084548089
 20
-244.39748856626872
 30
0.0
  0
VERTEX
  8
0
 10
111.94207808184217
 20
-242.40105280377867
 30
0.0
  0
VERTEX
  8
0
 10
116.33350517371215
 20
-240.3244038109387
 30
0.0
  0
VERTEX
  8
0
 10
120.68643181451492
 20
-238.16822129857934
 30
0.0
  0
VERTEX
  8
0
 10
124.99940078119224
 20
-235.93318630565815
 30
0.0
  0
VERTEX
  8
0
 10
129.27098178506068
 20
-233.62003150207494
 30
0.0
  0
VERTEX
  8
0
 10
133.49977952614236
 20
-231.22955662814954
 30
0.0
  0
VERTEX
  8
0
 10
137.68440104281348
 20
-228.76256590663093
 30
0.0
  0
VERTEX
  8
0
 10
141.82345337345026
 20
-226.21986356026804
 30
0.0
  0
VERTEX
  8
0
 10
145.91554626913086
 20
-223.60225807811005
 30
0.0
  0
VERTEX
  8
0
 10
149.95933007099197
 20
-220.91062178569985
 30
0.0
  0
VERTEX
  8
0
 10
153.95348636647765
 20
-218.1458761500394
 30
0.0
  0
VERTEX
  8
0
 10
157.89669754679565
 20
-215.3089439022197
 30
0.0
  0
VERTEX
  8
0
 10
161.78764600315358
 20
-212.40074777333166
 30
0.0
  0
VERTEX
  8
0
 10
165.6250214469417
 20
-209.42221997841114
 30
0.0
  0
VERTEX
  8
0
 10
169.40756769027524
 20
-206.3743628247738
 30
0.0
  0
VERTEX
  8
0
 10
173.1340527933743
 20
-203.25821003530274
 30
0.0
  0
VERTEX
  8
0
 10
176.80324493083688
 20
-200.0747954810676
 30
0.0
  0
VERTEX
  8
0
 10
180.41391227726098
 20
-196.82515303313804
 30
0.0
  0
SEQEND
  8
0
  0
LINE
  8
0
 62
0
 10
87.62982144929018
 20
-262.355260446406
 30
0.0
 11
81.19153585077507
 21
-257.502825849132
 31
0.0
  0
LINE
  8
0
 62
0
 10
81.19153585077507
 20
-257.502825849132
 30
0.0
 11
80.24752423554148
 21
-254.655955091908
 31
0.0
  0
CIRCLE
  8
0
 62
0
 10
138.66378166978998
 20
-231.28350321599703
 30
0.0
 40
0.8999999999999845
  0
ARC
  8
0
 62
0
 10
91.55046503136637
 20
-264.724028767193
 30
0.0
 40
2.9758652997181607
 50
-161.37386833084472
 51
-70.92289480995431
  0
LINE
  8
0
 62
0
 10
88.73046710664377
 20
-265.674494961556
 30
0.0
 11
87.62982144929018
 21
-262.355260446406
 31
0.0
  0
ARC
  8
0
 62
0
 10
0.0
 20
0.0
 30
0.0
 40
275.09663522588215
 50
-48.47387313916512
 51
-47.49099948293079
  0
LINE
  8
0
 62
0
 10
182.37847874039997
 20
-205.95205559775204
 30
0.0
 11
187.72545515223896
 21
-211.88542570177003
 31
0.0
  0
POLYLINE
  8
0
 62
0
 70
0
 66
1
 10
0.0
 20
0.0
 30
0.0
  0
VERTEX
  8
0
 10
130.18607556301097
 20
-236.17810911885604
 30
0.0
  0
VERTEX
  8
0
 10
131.74492082044017
 20
-235.2781093898551
 30
0.0
  0
VERTEX
  8
0
 10
130.18607556301097
 20
-236.17810911885604
 30
0.0
  0
SEQEND
  8
0
  0
CIRCLE
  8
0
 62
0
 10
91.68881541816187
 20
-264.562206536032
 30
0.0
 40
0.8999999999999915
  0
CIRCLE
  8
0
 62
0
 10
183.27318403238797
 20
-211.68594666304702
 30
0.0
 40
0.9000000000000057
  0
LINE
  8
0
 62
0
 10
185.88445172983896
 20
-202.79331674811104
 30
0.0
 11
180.41391227726098
 21
-196.82515303313804
 31
0.0
  0
ARC
  8
0
 62
0
 10
0.0
 20
0.0
 30
0.0
 40
283.08352148603785
 50
-40.922894809944644
 51
-18.459819254745774
  0
POLYLINE
  8
0
 62
0
 70
0
 66
1
 10
0.0
 20
0.0
 30
0.0
  0
VERTEX
  8
0
 10
196.82437212473997
 20
-180.41476421681003
 30
0.0
  0
VERTEX
  8
0
 10
200.0740302011108
 20
-176.80411093622575
 30
0.0
  0
VERTEX
  8
0
 10
203.2574606371077
 20
-173.13493257794173
 30
0.0
  0
VERTEX
  8
0
 10
206.3736295563291
 20
-169.40846096288482
 30
0.0
  0
VERTEX
  8
0
 10
209.42150308237345
 20
-165.62592791198202
 30
0.0
  0
VERTEX
  8
0
 10
212.40004748702538
 20
-161.78856536053874
 30
0.0
  0
VERTEX
  8
0
 10
215.30826045753182
 20
-157.89762949210134
 30
0.0
  0
VERTEX
  8
0
 10
218.14520977318546
 20
-153.9544305912446
 30
0.0
  0
VERTEX
  8
0
 10
220.90997269719216
 20
-149.96028626276683
 30
0.0
  0
VERTEX
  8
0
 10
223.60162649275782
 20
-145.91651411146648
 30
0.0
  0
VERTEX
  8
0
 10
226.21924968717377
 20
-141.82443254591092
 30
0.0
  0
VERTEX
  8
0
 10
228.76196994905536
 20
-137.68539122118767
 30
0.0
  0
VERTEX
  8
0
 10
231.22897878333572
 20
-133.50078038271909
 30
0.0
  0
VERTEX
  8
0
 10
233.61947196123666
 20
-129.27199298864795
 30
0.0
  0
VERTEX
  8
0
 10
235.93264525397996
 20
-125.00042199711703
 30
0.0
  0
VERTEX
  8
0
 10
238.1676989152063
 20
-120.6874627046425
 30
0.0
  0
VERTEX
  8
0
 10
240.323900268825
 20
-116.33454539673656
 30
0.0
  0
VERTEX
  8
0
 10
242.40056826957104
 20
-111.94312729350959
 30
0.0
  0
VERTEX
  8
0
 10
244.39702320030344
 20
-107.51466630792336
 30
0.0
  0
VERTEX
  8
0
 10
246.3125853438812
 20
-103.05062035293975
 30
0.0
  0
VERTEX
  8
0
 10
248.1465860646
 20
-98.55245189476638
 30
0.0
  0
VERTEX
  8
0
 10
249.89843862549745
 20
-94.0216570509435
 30
0.0
  0
VERTEX
  8
0
 10
251.5675929968698
 20
-89.4597470216383
 30
0.0
  0
VERTEX
  8
0
 10
253.15349932216074
 20
-84.86823307816232
 30
0.0
  0
VERTEX
  8
0
 10
254.655607744814
 20
-80.24862649182722
 30
0.0
  0
SEQEND
  8
0
  0
LINE
  8
0
 62
0
 10
207.06728172738298
 20
-183.39140963842502
 30
0.0
 11
199.06534554361198
 21
-182.40822080624102
 31
0.0
  0
LINE
  8
0
 62
0
 10
199.06534554361198
 20
-182.40822080624102
 30
0.0
 11
196.82437212473997
 21
-180.41476421681003
 31
0.0
  0
CIRCLE
  8
0
 62
0
 10
235.72810911885597
 20
-130.96549842641804
 30
0.0
 40
0.9000000000000233
  0
ARC
  8
0
 62
0
 10
211.64704282903898
 20
-183.48250138886903
 30
0.0
 40
2.975865299718426
 50
-131.37386833084935
 51
-40.92289480995151
  0
LINE
  8
0
 62
0
 10
209.68008608479096
 20
-185.71562822098704
 30
0.0
 11
207.06728172738298
 21
-183.39140963842502
 31
0.0
  0
ARC
  8
0
 62
0
 10
0.0
 20
0.0
 30
0.0
 40
275.09663522588266
 50
-18.473873139165118
 51
-17.490999482930793
  0
LINE
  8
0
 62
0
 10
260.920423491623
 20
-87.17047273907853
 30
0.0
 11
268.51772594972
 21
-89.63543377329403
 31
0.0
  0
POLYLINE
  8
0
 62
0
 70
0
 66
1
 10
0.0
 20
0.0
 30
0.0
  0
VERTEX
  8
0
 10
230.83350321599596
 20
-139.44320453319702
 30
0.0
  0
VERTEX
  8
0
 10
231.7335029449979
 20
-137.88435927576836
 30
0.0
  0
VERTEX
  8
0
 10
230.83350321599596
 20
-139.44320453319702
 30
0.0
  0
SEQEND
  8
0
  0
CIRCLE
  8
0
 62
0
 10
211.68594666304696
 20
-183.27318403238903
 30
0.0
 40
0.8999999999999773
  0
CIRCLE
  8
0
 62
0
 10
264.562206536032
 20
-91.68881541816263
 30
0.0
 40
0.9000000000000341
  0
LINE
  8
0
 62
0
 10
262.377315740638
 20
-82.68193815664883
 30
0.0
 11
254.655607744814
 21
-80.24862649182722
 31
0.0
  0
ARC
  8
0
 62
0
 10
0.0
 20
0.0
 30
0.0
 40
283.08352148603757
 50
-10.922894809944555
 51
11.540180745254311
  0
POLYLINE
  8
0
 62
0
 70
0
 66
1
 10
0.0
 20
0.0
 30
0.0
  0
VERTEX
  8
0
 10
260.662288452352
 20
-57.83158296716723
 30
0.0
  0
VERTEX
  8
0
 10
261.67124825981034
 20
-53.07983646373815
 30
0.0
  0
VERTEX
  8
0
 10
262.59359070942224
 20
-48.31051957644957
 30
0.0
  0
VERTEX
  8
0
 10
263.4290363484231
 20
-43.52521603171793
 30
0.0
  0
VERTEX
  8
0
 10
264.17730572404815
 20
-38.72550955595964
 30
0.0
  0
VERTEX
  8
0
 10
264.83811956905504
 20
-33.91298390055272
 30
0.0
  0
VERTEX
  8
0
 10
265.41123794691026
 20
-29.0892281087367
 30
0.0
  0
VERTEX
  8
0
 10
265.89650867308677
 20
-24.255843030593113
 30
0.0
  0
VERTEX
  8
0
 10
266.29379143647895
 20
-19.41443111374654
 30
0.0
  0
VERTEX
  8
0
 10
266.6029459259814
 20
-14.566594805821598
 30
0.0
  0
VERTEX
  8
0
 10
266.8238333271031
 20
-9.713936618484519
 30
0.0
  0
VERTEX
  8
0
 10
266.95637300624827
 20
-4.858061553019784
 30
0.0
  0
VERTEX
  8
0
 10
267.0005599088614
 20
-0.0005778448140709713
 30
0.0
  0
VERTEX
  8
0
 10
266.9563940314614
 20
4.856906054605449
 30
0.0
  0
VERTEX
  8
0
 10
266.82387537056724
 20
9.712781693711626
 30
0.0
  0
VERTEX
  8
0
 10
266.60300897377334
 20
14.565440837095927
 30
0.0
  0
VERTEX
  8
0
 10
266.2938754677285
 20
19.41327848312484
 30
0.0
  0
VERTEX
  8
0
 10
265.8966136599872
 20
24.25469211953132
 30
0.0
  0
VERTEX
  8
0
 10
265.41136385471896
 20
29.088079298083457
 30
0.0
  0
VERTEX
  8
0
 10
264.8382663560932
 20
33.9118375705493
 30
0.0
  0
VERTEX
  8
0
 10
264.1774733417079
 20
38.72436608618868
 30
0.0
  0
VERTEX
  8
0
 10
263.4292247412185
 20
43.52407580072352
 30
0.0
  0
VERTEX
  8
0
 10
262.59379981501223
 20
48.30938296156701
 30
0.0
  0
VERTEX
  8
0
 10
261.67147800899886
 20
53.07870384109319
 30
0.0
  0
VERTEX
  8
0
 10
260.662538769088
 20
57.83045471167607
 30
0.0
  0
SEQEND
  8
0
  0
LINE
  8
0
 62
0
 10
271.021231087715
 20
-55.28797871902274
 30
0.0
 11
263.599756657016
 21
-58.437480305519635
 31
0.0
  0
LINE
  8
0
 62
0
 10
263.599756657016
 20
-58.437480305519635
 30
0.0
 11
260.662288452352
 21
-57.83158296716723
 31
0.0
  0
CIRCLE
  8
0
 62
0
 10
269.629280096208
 20
4.444605902859327
 30
0.0
 40
0.9000000000000004
  0
ARC
  8
0
 62
0
 10
275.032966420235
 20
-53.07698593815414
 30
0.0
 40
2.975865299718168
 50
-101.37386833085228
 51
-10.922894809952714
  0
LINE
  8
0
 62
0
 10
274.44609532763
 20
-55.99440887676474
 30
0.0
 11
271.021231087715
 21
-55.28797871902274
 31
0.0
  0
ARC
  8
0
 62
0
 10
0.0
 20
0.0
 30
0.0
 40
275.09663522588284
 50
11.526126860834918
 51
12.509000517069234
  0
LINE
  8
0
 62
0
 10
269.548951479479
 20
54.96836789387086
 30
0.0
 11
277.360888925533
 21
56.63230024795026
 31
0.0
  0
POLYLINE
  8
0
 62
0
 70
0
 66
1
 10
0.0
 20
0.0
 30
0.0
  0
VERTEX
  8
0
 10
269.629280096208
 20
-5.344605902859583
 30
0.0
  0
VERTEX
  8
0
 10
269.6292800962085
 20
-3.5446064448566736
 30
0.0
  0
VERTEX
  8
0
 10
269.629280096208
 20
-5.344605902859583
 30
0.0
  0
SEQEND
  8
0
  0
CIRCLE
  8
0
 62
0
 10
274.96199945055
 20
-52.876259872985436
 30
0.0
 40
0.8999999999990109
  0
CIRCLE
  8
0
 62
0
 10
274.96199945055
 20
52.876259872985166
 30
0.0
 40
0.8999999999990109
  0
LINE
  8
0
 62
0
 10
268.566389886487
 20
59.58399899252736
 30
0.0
 11
260.662538769088
 21
57.83045471167617
 31
0.0
  0
ARC
  8
0
 62
0
 10
0.0
 20
0.0
 30
0.0
 40
283.08352148603717
 50
19.07710519005542
 51
41.54018074525439
  0
POLYLINE
  8
0
 62
0
 70
0
 66
1
 10
0.0
 20
0.0
 30
0.0
  0
VERTEX
  8
0
 10
254.655955091908
 20
80.24752423554177
 30
0.0
  0
VERTEX
  8
0
 10
253.1538666648498
 20
84.86713732358449
 30
0.0
  0
VERTEX
  8
0
 10
251.5679802135581
 20
89.45865813148049
 30
0.0
  0
VERTEX
  8
0
 10
249.89884558804772
 20
94.02057538553824
 30
0.0
  0
VERTEX
  8
0
 10
248.14701263833362
 20
98.55137781206614
 30
0.0
  0
VERTEX
  8
0
 10
246.31303138757843
 20
103.04955420851631
 30
0.0
  0
VERTEX
  8
0
 10
244.39748856626872
 20
107.51360845480893
 30
0.0
  0
VERTEX
  8
0
 10
242.40105280377867
 20
111.94207808184218
 30
0.0
  0
VERTEX
  8
0
 10
240.3244038109387
 20
116.33350517371215
 30
0.0
  0
VERTEX
  8
0
 10
238.16822129857934
 20
120.68643181451492
 30
0.0
  0
VERTEX
  8
0
 10
235.93318630565815
 20
124.99940078119224
 30
0.0
  0
VERTEX
  8
0
 10
233.62003150207494
 20
129.27098178506068
 30
0.0
  0
VERTEX
  8
0
 10
231.22955662814954
 20
133.49977952614236
 30
0.0
  0
VERTEX
  8
0
 10
228.76256590663093
 20
137.68440104281353
 30
0.0
  0
VERTEX
  8
0
 10
226.21986356026804
 20
141.82345337345038
 30
0.0
  0
VERTEX
  8
0
 10
223.60225807811005
 20
145.9155462691311
 30
0.0
  0
VERTEX
  8
0
 10
220.91062178569985
 20
149.95933007099234
 30
0.0
  0
VERTEX
  8
0
 10
218.1458761500394
 20
153.95348636647816
 30
0.0
  0
VERTEX
  8
0
 10
215.3089439022197
 20
157.89669754679625
 30
0.0
  0
VERTEX
  8
0
 10
212.40074777333166
 20
161.78764600315418
 30
0.0
  0
VERTEX
  8
0
 10
209.42221997841114
 20
165.62502144694224
 30
0.0
  0
VERTEX
  8
0
 10
206.3743628247738
 20
169.40756769027564
 30
0.0
  0
VERTEX
  8
0
 10
203.25821003530274
 20
173.1340527933745
 30
0.0
  0
VERTEX
  8
0
 10
200.0747954810676
 20
176.80324493083694
 30
0.0
  0
VERTEX
  8
0
 10
196.82515303313804
 20
180.41391227726098
 30
0.0
  0
SEQEND
  8
0
  0
LINE
  8
0
 62
0
 10
262.355260446405
 20
87.62982144929047
 30
0.0
 11
257.502825849132
 21
81.19153585077537
 31
0.0
  0
LINE
  8
0
 62
0
 10
257.502825849132
 20
81.19153585077537
 30
0.0
 11
254.655955091908
 21
80.24752423554177
 31
0.0
  0
CIRCLE
  8
0
 62
0
 10
231.28350321599703
 20
138.66378166979098
 30
0.0
 40
0.8999999999999845
  0
ARC
  8
0
 62
0
 10
264.724028767193
 20
91.55046503136677
 30
0.0
 40
2.9758652997181607
 50
-71.37386833084472
 51
19.077105190043778
  0
LINE
  8
0
 62
0
 10
265.674494961556
 20
88.73046710664417
 30
0.0
 11
262.355260446405
 21
87.62982144929047
 31
0.0
  0
ARC
  8
0
 62
0
 10
0.0
 20
0.0
 30
0.0
 40
275.09663522588215
 50
41.52612686083488
 51
42.50900051706934
  0
LINE
  8
0
 62
0
 10
205.95205559775204
 20
182.37847874040096
 30
0.0
 11
211.88542570177003
 21
187.72545515223896
 31
0.0
  0
POLYLINE
  8
0
 62
0
 70
0
 66
1
 10
0.0
 20
0.0
 30
0.0
  0
VERTEX
  8
0
 10
236.17810911885604
 20
130.18607556301197
 30
0.0
  0
VERTEX
  8
0
 10
235.27810938985462
 20
131.74492082044017
 30
0.0
  0
VERTEX
  8
0
 10
236.17810911885604
 20
130.18607556301197
 30
0.0
  0
SEQEND
  8
0
  0
CIRCLE
  8
0
 62
0
 10
264.562206536032
 20
91.68881541816218
 30
0.0
 40
0.9000000000000341
  0
CIRCLE
  8
0
 62
0
 10
211.68594666304702
 20
183.27318403238797
 30
0.0
 40
0.8999999999999773
  0
LINE
  8
0
 62
0
 10
202.79331674811002
 20
185.88445172983896
 30
0.0
 11
196.82515303313804
 21
180.41391227726098
 31
0.0
  0
ARC
  8
0
 62
0
 10
0.0
 20
0.0
 30
0.0
 40
283.08352148603717
 50
49.07710519005548
 51
71.54018074525436
  0
POLYLINE
  8
0
 62
0
 70
0
 66
1
 10
0.0
 20
0.0
 30
0.0
  0
VERTEX
  8
0
 10
180.41476421681003
 20
196.82437212473997
 30
0.0
  0
VERTEX
  8
0
 10
176.80411093622575
 20
200.0740302011113
 30
0.0
  0
VERTEX
  8
0
 10
173.13493257794173
 20
203.2574606371085
 30
0.0
  0
VERTEX
  8
0
 10
169.40846096288482
 20
206.37362955633
 30
0.0
  0
VERTEX
  8
0
 10
165.62592791198202
 20
209.42150308237436
 30
0.0
  0
VERTEX
  8
0
 10
161.78856536053874
 20
212.40004748702617
 30
0.0
  0
VERTEX
  8
0
 10
157.89762949210134
 20
215.30826045753247
 30
0.0
  0
VERTEX
  8
0
 10
153.9544305912446
 20
218.14520977318597
 30
0.0
  0
VERTEX
  8
0
 10
149.96028626276683
 20
220.90997269719253
 30
0.0
  0
VERTEX
  8
0
 10
145.91651411146648
 20
223.60162649275804
 30
0.0
  0
VERTEX
  8
0
 10
141.82443254591092
 20
226.2192496871739
 30
0.0
  0
VERTEX
  8
0
 10
137.68539122118764
 20
228.7619699490554
 30
0.0
  0
VERTEX
  8
0
 10
133.50078038271906
 20
231.22897878333575
 30
0.0
  0
VERTEX
  8
0
 10
129.2719929886479
 20
233.61947196123668
 30
0.0
  0
VERTEX
  8
0
 10
125.0004219971169
 20
235.93264525397996
 30
0.0
  0
VERTEX
  8
0
 10
120.68746270464227
 20
238.1676989152063
 30
0.0
  0
VERTEX
  8
0
 10
116.3345453967362
 20
240.323900268825
 30
0.0
  0
VERTEX
  8
0
 10
111.9431272935091
 20
242.40056826957104
 30
0.0
  0
VERTEX
  8
0
 10
107.51466630792275
 20
244.39702320030344
 30
0.0
  0
VERTEX
  8
0
 10
103.05062035293906
 20
246.3125853438812
 30
0.0
  0
VERTEX
  8
0
 10
98.55245189476567
 20
248.1465860646
 30
0.0
  0
VERTEX
  8
0
 10
94.02165705094285
 20
249.89843862549745
 30
0.0
  0
VERTEX
  8
0
 10
89.4597470216377
 20
251.5675929968698
 30
0.0
  0
VERTEX
  8
0
 10
84.8682330781618
 20
253.15349932216074
 30
0.0
  0
VERTEX
  8
0
 10
80.24862649182673
 20
254.655607744814
 30
0.0
  0
SEQEND
  8
0
  0
LINE
  8
0
 62
0
 10
183.39140963842502
 20
207.06728172738298
 30
0.0
 11
182.40822080624102
 21
199.06534554361298
 31
0.0
  0
LINE
  8
0
 62
0
 10
182.40822080624102
 20
199.06534554361298
 30
0.0
 11
180.41476421681003
 21
196.82437212473997
 31
0.0
  0
CIRCLE
  8
0
 62
0
 10
130.96549842641804
 20
235.72810911885597
 30
0.0
 40
0.9000000000000233
  0
ARC
  8
0
 62
0
 10
183.48250138886803
 20
211.64704282903898
 30
0.0
 40
2.975865299718404
 50
-41.3738683308497
 51
49.07710519004854
  0
LINE
  8
0
 62
0
 10
185.71562822098602
 20
209.68008608479096
 30
0.0
 11
183.39140963842502
 21
207.06728172738298
 31
0.0
  0
ARC
  8
0
 62
0
 10
0.0
 20
0.0
 30
0.0
 40
275.09663522588255
 50
71.52612686083495
 51
72.50900051706925
  0
LINE
  8
0
 62
0
 10
87.17047273907812
 20
260.920423491623
 30
0.0
 11
89.63543377329363
 21
268.517725949721
 31
0.0
  0
POLYLINE
  8
0
 62
0
 70
0
 66
1
 10
0.0
 20
0.0
 30
0.0
  0
VERTEX
  8
0
 10
139.44320453319702
 20
230.83350321599698
 30
0.0
  0
VERTEX
  8
0
 10
137.88435927576782
 20
231.73350294499792
 30
0.0
  0
VERTEX
  8
0
 10
139.44320453319702
 20
230.83350321599698
 30
0.0
  0
SEQEND
  8
0
  0
CIRCLE
  8
0
 62
0
 10
183.27318403238803
 20
211.68594666304696
 30
0.0
 40
0.9000000000000057
  0
CIRCLE
  8
0
 62
0
 10
91.68881541816224
 20
264.562206536032
 30
0.0
 40
0.9000000000000057
  0
LINE
  8
0
 62
0
 10
82.68193815664843
 20
262.377315740638
 30
0.0
 11
80.24862649182683
 21
254.655607744814
 31
0.0
  0
ENDBLK
  0
ENDSEC
  0
SECTION
  2
ENTITIES
  0
CIRCLE
  8
EVERYTHING
 62
0
 10
-279.9828987927383
 20
-0.369482349786246
 30
0.0
 40
1.0000000000000002
  0
CIRCLE
  8
EVERYTHING
 62
0
 10
-279.0503909770882
 20
-13.478483160963933
 30
0.0
 40
1.0
  0
CIRCLE
  8
EVERYTHING
 62
0
 10
-276.1169944529401
 20
27.30195666728713
 30
0.0
 40
1.0
  0
POLYLINE
  8
EVERYTHING
 62
0
 70
1
 66
1
 10
0.0
 20
0.0
 30
0.0
  0
VERTEX
  8
EVERYTHING
 10
-275.111797539299
 20
19.667825328887773
 30
0.0
  0
VERTEX
  8
EVERYTHING
 10
-279.78782532888783
 20
15.908202460701006
 30
0.0
  0
VERTEX
  8
EVERYTHING
 10
-276.0282024607011
 20
11.232174671112162
 30
0.0
  0
VERTEX
  8
EVERYTHING
 10
-271.35217467111227
 20
14.991797539298929
 30
0.0
  0
SEQEND
  8
EVERYTHING
  0
CIRCLE
  8
EVERYTHING
 62
0
 10
-278.68735185972594
 20
12.943584754542144
 30
0.0
 40
1.0000000000000002
  0
POLYLINE
  8
EVERYTHING
 62
0
 70
1
 66
1
 10
0.0
 20
0.0
 30
0.0
  0
VERTEX
  8
EVERYTHING
 10
-273.2899376677859
 20
3.264285856893434
 30
0.0
  0
VERTEX
  8
EVERYTHING
 10
-279.2642858568934
 20
2.710062332214068
 30
0.0
  0
VERTEX
  8
EVERYTHING
 10
-278.710062332214
 20
-3.264285856893427
 30
0.0
  0
VERTEX
  8
EVERYTHING
 10
-272.7357141431066
 20
-2.71006233221406
 30
0.0
  0
SEQEND
  8
EVERYTHING
  0
POLYLINE
  8
EVERYTHING
 62
0
 70
1
 66
1
 10
0.0
 20
0.0
 30
0.0
  0
VERTEX
  8
EVERYTHING
 10
-271.48106913790673
 20
-14.318344396460901
 30
0.0
  0
VERTEX
  8
EVERYTHING
 10
-276.7016556035391
 20
-11.361069137906792
 30
0.0
  0
VERTEX
  8
EVERYTHING
 10
-279.6589308620932
 20
-16.581655603539147
 30
0.0
  0
VERTEX
  8
EVERYTHING
 10
-274.4383443964608
 20
-19.538930862093256
 30
0.0
  0
SEQEND
  8
EVERYTHING
  0
POLYLINE
  8
EVERYTHING
 62
0
 70
1
 66
1
 10
0.0
 20
0.0
 30
0.0
  0
VERTEX
  8
EVERYTHING
 10
-270.0924590643714
 20
-31.5903726974623
 30
0.0
  0
VERTEX
  8
EVERYTHING
 10
-273.5296273025376
 20
-26.672459064371424
 30
0.0
  0
VERTEX
  8
EVERYTHING
 10
-278.4475409356285
 20
-30.109627302537678
 30
0.0
  0
VERTEX
  8
EVERYTHING
 10
-275.0103726974623
 20
-35.02754093562855
 30
0.0
  0
SEQEND
  8
EVERYTHING
  0
POLYLINE
  8
EVERYTHING
 62
0
 70
1
 66
1
 10
0.0
 20
0.0
 30
0.0
  0
VERTEX
  8
EVERYTHING
 10
-251.5757347822859
 20
-114.43390023684964
 30
0.0
  0
VERTEX
  8
EVERYTHING
 10
-248.93609976315042
 20
-109.04573478228595
 30
0.0
  0
VERTEX
  8
EVERYTHING
 10
-254.3242652177141
 20
-106.40609976315045
 30
0.0
  0
VERTEX
  8
EVERYTHING
 10
-256.9639002368496
 20
-111.79426521771416
 30
0.0
  0
SEQEND
  8
EVERYTHING
  0
POLYLINE
  8
EVERYTHING
 62
0
 70
1
 66
1
 10
0.0
 20
0.0
 30
0.0
  0
VERTEX
  8
EVERYTHING
 10
-245.56191979359224
 20
-128.57497375502075
 30
0.0
  0
VERTEX
  8
EVERYTHING
 10
-242.20502624497925
 20
-123.60191979359217
 30
0.0
  0
VERTEX
  8
EVERYTHING
 10
-247.1780802064078
 20
-120.24502624497917
 30
0.0
  0
VERTEX
  8
EVERYTHING
 10
-250.53497375502081
 20
-125.21808020640775
 30
0.0
  0
SEQEND
  8
EVERYTHING
  0
POLYLINE
  8
EVERYTHING
 62
0
 70
1
 66
1
 10
0.0
 20
0.0
 30
0.0
  0
VERTEX
  8
EVERYTHING
 10
-238.78982363429535
 20
-142.23639219627637
 30
0.0
  0
VERTEX
  8
EVERYTHING
 10
-234.78360780372367
 20
-137.76982363429536
 30
0.0
  0
VERTEX
  8
EVERYTHING
 10
-239.25017636570468
 20
-133.76360780372372
 30
0.0
  0
VERTEX
  8
EVERYTHING
 10
-243.25639219627635
 20
-138.2301763657047
 30
0.0
  0
SEQEND
  8
EVERYTHING
  0
CIRCLE
  8
EVERYTHING
 62
0
 10
-276.5614454921108
 20
-27.571390911272744
 30
0.0
 40
1.0000000000000002
  0
POLYLINE
  8
EVERYTHING
 62
0
 70
1
 66
1
 10
0.0
 20
0.0
 30
0.0
  0
VERTEX
  8
EVERYTHING
 10
-256.79530935114315
 20
-99.8658405810132
 30
0.0
  0
VERTEX
  8
EVERYTHING
 10
-254.95415941898682
 20
-94.15530935114319
 30
0.0
  0
VERTEX
  8
EVERYTHING
 10
-260.66469064885683
 20
-92.31415941898685
 30
0.0
  0
VERTEX
  8
EVERYTHING
 10
-262.50584058101316
 20
-98.02469064885686
 30
0.0
  0
SEQEND
  8
EVERYTHING
  0
CIRCLE
  8
EVERYTHING
 62
0
 10
-257.5025667118958
 20
-92.28297918008664
 30
0.0
 40
1.0
  0
POLYLINE
  8
EVERYTHING
 62
0
 70
1
 66
1
 10
0.0
 20
0.0
 30
0.0
  0
VERTEX
  8
EVERYTHING
 10
-268.3446823180245
 20
-48.105091494995264
 30
0.0
  0
VERTEX
  8
EVERYTHING
 10
-270.15490850500476
 20
-42.384682318024524
 30
0.0
  0
VERTEX
  8
EVERYTHING
 10
-275.8753176819755
 20
-44.19490850500475
 30
0.0
  0
VERTEX
  8
EVERYTHING
 10
-274.0650914949953
 20
-49.91531768197549
 30
0.0
  0
SEQEND
  8
EVERYTHING
  0
CIRCLE
  8
EVERYTHING
 62
0
 10
-273.3168174579869
 20
-42.336393882019536
 30
0.0
 40
1.0000000000000002
  0
CIRCLE
  8
EVERYTHING
 62
0
 10
-251.19024332057631
 20
-106.82788969695758
 30
0.0
 40
1.0
  0
CIRCLE
  8
EVERYTHING
 62
0
 10
-244.13207096759135
 20
-121.09463069238095
 30
0.0
 40
1.0
  0
TEXT
  8
0
 62
0
 10
-89.19314420402738
 20
261.18783284640114
 30
0.0
 40
4.800000000000001
  1
0
 50
151.52
  7
STANDARD
  0
POLYLINE
  8
EVERYTHING
 62
0
 70
1
 66
1
 10
0.0
 20
0.0
 30
0.0
  0
VERTEX
  8
EVERYTHING
 10
274.6845238280961
 20
-42.7777860301331
 30
0.0
  0
VERTEX
  8
EVERYTHING
 10
268.73778603013307
 20
-43.57547617190392
 30
0.0
  0
VERTEX
  8
EVERYTHING
 10
269.5354761719039
 20
-49.52221396986691
 30
0.0
  0
VERTEX
  8
EVERYTHING
 10
275.4822139698669
 20
-48.72452382809608
 30
0.0
  0
SEQEND
  8
EVERYTHING
  0
CIRCLE
  8
EVERYTHING
 62
0
 10
268.1455081346914
 20
-46.68179342784722
 30
0.0
 40
1.0
  0
POLYLINE
  8
EVERYTHING
 62
0
 70
1
 66
1
 10
0.0
 20
0.0
 30
0.0
  0
VERTEX
  8
EVERYTHING
 10
277.11712526108477
 20
-27.70454649570324
 30
0.0
  0
VERTEX
  8
EVERYTHING
 10
271.1245464957032
 20
-28.00287473891519
 30
0.0
  0
VERTEX
  8
EVERYTHING
 10
271.42287473891514
 20
-33.995453504296755
 30
0.0
  0
VERTEX
  8
EVERYTHING
 10
277.4154535042967
 20
-33.69712526108481
 30
0.0
  0
SEQEND
  8
EVERYTHING
  0
CIRCLE
  8
EVERYTHING
 62
0
 10
270.27494748974556
 20
-31.04888549547463
 30
0.0
 40
0.9999999999999999
  0
POLYLINE
  8
EVERYTHING
 62
0
 70
1
 66
1
 10
0.0
 20
0.0
 30
0.0
  0
VERTEX
  8
EVERYTHING
 10
278.6469930598465
 20
-12.52902178891108
 30
0.0
  0
VERTEX
  8
EVERYTHING
 10
272.64902178891106
 20
-12.373006940153465
 30
0.0
  0
VERTEX
  8
EVERYTHING
 10
272.49300694015346
 20
-18.370978211088925
 30
0.0
  0
VERTEX
  8
EVERYTHING
 10
278.49097821108893
 20
-18.52699305984654
 30
0.0
  0
SEQEND
  8
EVERYTHING
  0
CIRCLE
  8
EVERYTHING
 62
0
 10
271.571352486043
 20
-15.34599010082826
 30
0.0
 40
1.0
  0
POLYLINE
  8
EVERYTHING
 62
0
 70
1
 66
1
 10
0.0
 20
0.0
 30
0.0
  0
VERTEX
  8
EVERYTHING
 10
279.2756090687702
 20
2.696365188284116
 30
0.0
  0
VERTEX
  8
EVERYTHING
 10
273.3036348117159
 20
3.2756090687702017
 30
0.0
  0
VERTEX
  8
EVERYTHING
 10
272.72439093122983
 20
-2.696365188284114
 30
0.0
  0
VERTEX
  8
EVERYTHING
 10
278.6963651882841
 20
-3.2756090687702
 30
0.0
  0
SEQEND
  8
EVERYTHING
  0
CIRCLE
  8
EVERYTHING
 62
0
 10
272.0186838286305
 20
0.386162586990725
 30
0.0
 40
1.0000000000000002
  0
POLYLINE
  8
EVERYTHING
 62
0
 70
1
 66
1
 10
0.0
 20
0.0
 30
0.0
  0
VERTEX
  8
EVERYTHING
 10
279.02098705071603
 20
17.91793200388302
 30
0.0
  0
VERTEX
  8
EVERYTHING
 10
273.10206799611694
 20
18.900987050716058
 30
0.0
  0
VERTEX
  8
EVERYTHING
 10
272.1190129492839
 20
12.982067996116974
 30
0.0
  0
VERTEX
  8
EVERYTHING
 10
278.037932003883
 20
11.999012949283937
 30
0.0
  0
SEQEND
  8
EVERYTHING
  0
CIRCLE
  8
EVERYTHING
 62
0
 10
271.62405396360066
 20
16.105370031222026
 30
0.0
 40
1.0
  0
POLYLINE
  8
EVERYTHING
 62
0
 70
1
 66
1
 10
0.0
 20
0.0
 30
0.0
  0
VERTEX
  8
EVERYTHING
 10
277.87188182414764
 20
33.09197397952659
 30
0.0
  0
VERTEX
  8
EVERYTHING
 10
272.0280260204733
 20
34.45188182414772
 30
0.0
  0
VERTEX
  8
EVERYTHING
 10
270.6681181758522
 20
28.60802602047341
 30
0.0
  0
VERTEX
  8
EVERYTHING
 10
276.5119739795265
 20
27.24811817585228
 30
0.0
  0
SEQEND
  8
EVERYTHING
  0
CIRCLE
  8
EVERYTHING
 62
0
 10
270.3740961308837
 20
31.75660522974742
 30
0.0
 40
1.0000000000000002
  0
POLYLINE
  8
EVERYTHING
 62
0
 70
1
 66
1
 10
0.0
 20
0.0
 30
0.0
  0
VERTEX
  8
EVERYTHING
 10
275.84414392159186
 20
48.16399333981999
 30
0.0
  0
VERTEX
  8
EVERYTHING
 10
270.09600666018014
 20
49.884143921591765
 30
0.0
  0
VERTEX
  8
EVERYTHING
 10
268.37585607840833
 20
44.13600666018001
 30
0.0
  0
VERTEX
  8
EVERYTHING
 10
274.1239933398201
 20
42.41585607840823
 30
0.0
  0
SEQEND
  8
EVERYTHING
  0
CIRCLE
  8
EVERYTHING
 62
0
 10
268.27790849239227
 20
47.29676705451451
 30
0.0
 40
0.9999999999999999
  0
POLYLINE
  8
EVERYTHING
 62
0
 70
1
 66
1
 10
0.0
 20
0.0
 30
0.0
  0
VERTEX
  8
EVERYTHING
 10
262.81595418549836
 20
97.23235650915497
 30
0.0
  0
VERTEX
  8
EVERYTHING
 10
257.58764349084504
 20
100.17595418549833
 30
0.0
  0
VERTEX
  8
EVERYTHING
 10
254.6440458145017
 20
94.94764349084502
 30
0.0
  0
VERTEX
  8
EVERYTHING
 10
259.872356509155
 20
92.00404581450168
 30
0.0
  0
SEQEND
  8
EVERYTHING
  0
CIRCLE
  8
EVERYTHING
 62
0
 10
255.24445953689786
 20
98.05239845089558
 30
0.0
 40
0.9999999999999999
  0
POLYLINE
  8
EVERYTHING
 62
0
 70
1
 66
1
 10
0.0
 20
0.0
 30
0.0
  0
VERTEX
  8
EVERYTHING
 10
257.1207853383477
 20
111.1975279168135
 30
0.0
  0
VERTEX
  8
EVERYTHING
 10
252.17247208318653
 20
114.59078533834764
 30
0.0
  0
VERTEX
  8
EVERYTHING
 10
248.7792146616524
 20
109.64247208318649
 30
0.0
  0
VERTEX
  8
EVERYTHING
 10
253.72752791681353
 20
106.24921466165236
 30
0.0
  0
SEQEND
  8
EVERYTHING
  0
CIRCLE
  8
EVERYTHING
 62
0
 10
249.6511244965593
 20
112.68217161435611
 30
0.0
 40
1.0
  0
POLYLINE
  8
EVERYTHING
 62
0
 70
1
 66
1
 10
0.0
 20
0.0
 30
0.0
  0
VERTEX
  8
EVERYTHING
 10
250.59979340077166
 20
124.08007912041178
 30
0.0
  0
VERTEX
  8
EVERYTHING
 10
246.6999208795882
 20
128.6397934007717
 30
0.0
  0
VERTEX
  8
EVERYTHING
 10
242.1402065992283
 20
124.73992087958824
 30
0.0
  0
VERTEX
  8
EVERYTHING
 10
246.04007912041175
 20
120.18020659922831
 30
0.0
  0
SEQEND
  8
EVERYTHING
  0
CIRCLE
  8
EVERYTHING
 62
0
 10
243.7700849858777
 20
127.44980952023994
 30
0.0
 40
1.0000000000000002
  0
POLYLINE
  8
EVERYTHING
 62
0
 70
1
 66
1
 10
0.0
 20
0.0
 30
0.0
  0
VERTEX
  8
EVERYTHING
 10
236.03101570008894
 20
134.98902460075058
 30
0.0
  0
VERTEX
  8
EVERYTHING
 10
242.03097539924943
 20
135.01101570008893
 30
0.0
  0
VERTEX
  8
EVERYTHING
 10
242.00898429991108
 20
141.0109753992494
 30
0.0
  0
VERTEX
  8
EVERYTHING
 10
236.0090246007506
 20
140.98898429991107
 30
0.0
  0
SEQEND
  8
EVERYTHING
  0
CIRCLE
  8
EVERYTHING
 62
0
 10
243.01997313277366
 20
138.01466073289222
 30
0.0
 40
1.0
  0
POLYLINE
  8
EVERYTHING
 62
0
 70
1
 66
1
 10
0.0
 20
0.0
 30
0.0
  0
VERTEX
  8
EVERYTHING
 10
227.92
 20
148.16
 30
0.0
  0
VERTEX
  8
EVERYTHING
 10
233.92
 20
148.16
 30
0.0
  0
VERTEX
  8
EVERYTHING
 10
233.92
 20
154.16
 30
0.0
  0
VERTEX
  8
EVERYTHING
 10
227.92
 20
154.16
 30
0.0
  0
SEQEND
  8
EVERYTHING
  0
CIRCLE
  8
EVERYTHING
 62
0
 10
234.92
 20
151.16
 30
0.0
 40
1.0
  0
POLYLINE
  8
EVERYTHING
 62
0
 70
1
 66
1
 10
0.0
 20
0.0
 30
0.0
  0
VERTEX
  8
EVERYTHING
 10
219.1
 20
160.85
 30
0.0
  0
VERTEX
  8
EVERYTHING
 10
225.1
 20
160.85
 30
0.0
  0
VERTEX
  8
EVERYTHING
 10
225.1
 20
166.85
 30
0.0
  0
VERTEX
  8
EVERYTHING
 10
219.1
 20
166.85
 30
0.0
  0
SEQEND
  8
EVERYTHING
  0
CIRCLE
  8
EVERYTHING
 62
0
 10
226.1
 20
163.85
 30
0.0
 40
1.0
  0
POLYLINE
  8
EVERYTHING
 62
0
 70
1
 66
1
 10
0.0
 20
0.0
 30
0.0
  0
VERTEX
  8
EVERYTHING
 10
209.58
 20
173.02
 30
0.0
  0
VERTEX
  8
EVERYTHING
 10
215.58
 20
173.02
 30
0.0
  0
VERTEX
  8
EVERYTHING
 10
215.58
 20
179.02
 30
0.0
  0
VERTEX
  8
EVERYTHING
 10
209.58
 20
179.02
 30
0.0
  0
SEQEND
  8
EVERYTHING
  0
CIRCLE
  8
EVERYTHING
 62
0
 10
216.58
 20
176.02
 30
0.0
 40
1.0
  0
POLYLINE
  8
EVERYTHING
 62
0
 70
1
 66
1
 10
0.0
 20
0.0
 30
0.0
  0
VERTEX
  8
EVERYTHING
 10
173.02
 20
209.58
 30
0.0
  0
VERTEX
  8
EVERYTHING
 10
179.02
 20
209.58
 30
0.0
  0
VERTEX
  8
EVERYTHING
 10
179.02
 20
215.58
 30
0.0
  0
VERTEX
  8
EVERYTHING
 10
173.02
 20
215.58
 30
0.0
  0
SEQEND
  8
EVERYTHING
  0
CIRCLE
  8
EVERYTHING
 62
0
 10
180.02
 20
212.58
 30
0.0
 40
1.0
  0
POLYLINE
  8
EVERYTHING
 62
0
 70
1
 66
1
 10
0.0
 20
0.0
 30
0.0
  0
VERTEX
  8
EVERYTHING
 10
160.85
 20
219.1
 30
0.0
  0
VERTEX
  8
EVERYTHING
 10
166.85
 20
219.1
 30
0.0
  0
VERTEX
  8
EVERYTHING
 10
166.85
 20
225.1
 30
0.0
  0
VERTEX
  8
EVERYTHING
 10
160.85
 20
225.1
 30
0.0
  0
SEQEND
  8
EVERYTHING
  0
CIRCLE
  8
EVERYTHING
 62
0
 10
167.85
 20
222.1
 30
0.0
 40
1.0
  0
POLYLINE
  8
EVERYTHING
 62
0
 70
1
 66
1
 10
0.0
 20
0.0
 30
0.0
  0
VERTEX
  8
EVERYTHING
 10
148.16
 20
227.92
 30
0.0
  0
VERTEX
  8
EVERYTHING
 10
154.16
 20
227.92
 30
0.0
  0
VERTEX
  8
EVERYTHING
 10
154.16
 20
233.92
 30
0.0
  0
VERTEX
  8
EVERYTHING
 10
148.16
 20
233.92
 30
0.0
  0
SEQEND
  8
EVERYTHING
  0
CIRCLE
  8
EVERYTHING
 62
0
 10
155.16
 20
230.92
 30
0.0
 40
1.0
  0
POLYLINE
  8
EVERYTHING
 62
0
 70
1
 66
1
 10
0.0
 20
0.0
 30
0.0
  0
VERTEX
  8
EVERYTHING
 10
135.0
 20
236.02
 30
0.0
  0
VERTEX
  8
EVERYTHING
 10
141.0
 20
236.02
 30
0.0
  0
VERTEX
  8
EVERYTHING
 10
141.0
 20
242.02
 30
0.0
  0
VERTEX
  8
EVERYTHING
 10
135.0
 20
242.02
 30
0.0
  0
SEQEND
  8
EVERYTHING
  0
CIRCLE
  8
EVERYTHING
 62
0
 10
142.0
 20
239.02
 30
0.0
 40
1.0
  0
POLYLINE
  8
EVERYTHING
 62
0
 70
1
 66
1
 10
0.0
 20
0.0
 30
0.0
  0
VERTEX
  8
EVERYTHING
 10
121.41
 20
243.37
 30
0.0
  0
VERTEX
  8
EVERYTHING
 10
127.41
 20
243.37
 30
0.0
  0
VERTEX
  8
EVERYTHING
 10
127.41
 20
249.37
 30
0.0
  0
VERTEX
  8
EVERYTHING
 10
121.41
 20
249.37
 30
0.0
  0
SEQEND
  8
EVERYTHING
  0
CIRCLE
  8
EVERYTHING
 62
0
 10
128.41
 20
246.37
 30
0.0
 40
1.0
  0
POLYLINE
  8
EVERYTHING
 62
0
 70
1
 66
1
 10
0.0
 20
0.0
 30
0.0
  0
VERTEX
  8
EVERYTHING
 10
108.66936960860407
 20
256.8146207100724
 30
0.0
  0
VERTEX
  8
EVERYTHING
 10
106.55537928992759
 20
251.199369608604
 30
0.0
  0
VERTEX
  8
EVERYTHING
 10
112.17063039139597
 20
249.08537928992752
 30
0.0
  0
VERTEX
  8
EVERYTHING
 10
114.28462071007247
 20
254.70063039139592
 30
0.0
  0
SEQEND
  8
EVERYTHING
  0
CIRCLE
  8
EVERYTHING
 62
0
 10
109.01067312088234
 20
249.2064992656877
 30
0.0
 40
0.9999999999999999
  0
POLYLINE
  8
EVERYTHING
 62
0
 70
1
 66
1
 10
0.0
 20
0.0
 30
0.0
  0
VERTEX
  8
EVERYTHING
 10
94.4643595779072
 20
262.6488382485193
 30
0.0
  0
VERTEX
  8
EVERYTHING
 10
92.17116175148068
 20
257.1043595779072
 30
0.0
  0
VERTEX
  8
EVERYTHING
 10
97.7156404220928
 20
254.81116175148068
 30
0.0
  0
VERTEX
  8
EVERYTHING
 10
100.00883824851933
 20
260.3556404220928
 30
0.0
  0
SEQEND
  8
EVERYTHING
  0
CIRCLE
  8
EVERYTHING
 62
0
 10
94.56120144904901
 20
255.0336808862586
 30
0.0
 40
0.9999999999999998
  0
POLYLINE
  8
EVERYTHING
 62
0
 70
1
 66
1
 10
0.0
 20
0.0
 30
0.0
  0
VERTEX
  8
EVERYTHING
 10
44.52094036582474
 20
276.02741811762553
 30
0.0
  0
VERTEX
  8
EVERYTHING
 10
42.2325818823745
 20
270.4809403658247
 30
0.0
  0
VERTEX
  8
EVERYTHING
 10
47.7790596341753
 20
268.1925818823745
 30
0.0
  0
VERTEX
  8
EVERYTHING
 10
50.06741811762554
 20
273.7390596341753
 30
0.0
  0
SEQEND
  8
EVERYTHING
  0
CIRCLE
  8
EVERYTHING
 62
0
 10
44.624427677699856
 20
268.41234816546614
 30
0.0
 40
1.0
  0
POLYLINE
  8
EVERYTHING
 62
0
 70
1
 66
1
 10
0.0
 20
0.0
 30
0.0
  0
VERTEX
  8
EVERYTHING
 10
29.154856295363174
 20
278.1592785732871
 30
0.0
  0
VERTEX
  8
EVERYTHING
 10
26.96072142671285
 20
272.5748562953632
 30
0.0
  0
VERTEX
  8
EVERYTHING
 10
32.54514370463676
 20
270.38072142671285
 30
0.0
  0
VERTEX
  8
EVERYTHING
 10
34.73927857328708
 20
275.9651437046368
 30
0.0
  0
SEQEND
  8
EVERYTHING
  0
CIRCLE
  8
EVERYTHING
 62
0
 10
29.38724342089978
 20
270.5470518147174
 30
0.0
 40
0.9999999999999999
  0
POLYLINE
  8
EVERYTHING
 62
0
 70
1
 66
1
 10
0.0
 20
0.0
 30
0.0
  0
VERTEX
  8
EVERYTHING
 10
12.45
 20
272.57
 30
0.0
  0
VERTEX
  8
EVERYTHING
 10
18.45
 20
272.57
 30
0.0
  0
VERTEX
  8
EVERYTHING
 10
18.45
 20
278.57
 30
0.0
  0
VERTEX
  8
EVERYTHING
 10
12.45
 20
278.57
 30
0.0
  0
SEQEND
  8
EVERYTHING
  0
CIRCLE
  8
EVERYTHING
 62
0
 10
19.45
 20
275.57
 30
0.0
 40
1.0
  0
POLYLINE
  8
EVERYTHING
 62
0
 70
1
 66
1
 10
0.0
 20
0.0
 30
0.0
  0
VERTEX
  8
EVERYTHING
 10
-3.0
 20
273.0
 30
0.0
  0
VERTEX
  8
EVERYTHING
 10
3.0
 20
273.0
 30
0.0
  0
VERTEX
  8
EVERYTHING
 10
3.0
 20
279.0
 30
0.0
  0
VERTEX
  8
EVERYTHING
 10
-3.0
 20
279.0
 30
0.0
  0
SEQEND
  8
EVERYTHING
  0
CIRCLE
  8
EVERYTHING
 62
0
 10
4.0
 20
276.0
 30
0.0
 40
1.0
  0
POLYLINE
  8
EVERYTHING
 62
0
 70
1
 66
1
 10
0.0
 20
0.0
 30
0.0
  0
VERTEX
  8
EVERYTHING
 10
-18.45
 20
272.57
 30
0.0
  0
VERTEX
  8
EVERYTHING
 10
-12.45
 20
272.57
 30
0.0
  0
VERTEX
  8
EVERYTHING
 10
-12.45
 20
278.57
 30
0.0
  0
VERTEX
  8
EVERYTHING
 10
-18.45
 20
278.57
 30
0.0
  0
SEQEND
  8
EVERYTHING
  0
CIRCLE
  8
EVERYTHING
 62
0
 10
-11.45
 20
275.57
 30
0.0
 40
1.0
  0
POLYLINE
  8
EVERYTHING
 62
0
 70
1
 66
1
 10
0.0
 20
0.0
 30
0.0
  0
VERTEX
  8
EVERYTHING
 10
-33.85
 20
271.27
 30
0.0
  0
VERTEX
  8
EVERYTHING
 10
-27.85
 20
271.27
 30
0.0
  0
VERTEX
  8
EVERYTHING
 10
-27.85
 20
277.27
 30
0.0
  0
VERTEX
  8
EVERYTHING
 10
-33.85
 20
277.27
 30
0.0
  0
SEQEND
  8
EVERYTHING
  0
CIRCLE
  8
EVERYTHING
 62
0
 10
-26.85
 20
274.27
 30
0.0
 40
1.0
  0
POLYLINE
  8
EVERYTHING
 62
0
 70
1
 66
1
 10
0.0
 20
0.0
 30
0.0
  0
VERTEX
  8
EVERYTHING
 10
-49.15
 20
269.11
 30
0.0
  0
VERTEX
  8
EVERYTHING
 10
-43.15
 20
269.11
 30
0.0
  0
VERTEX
  8
EVERYTHING
 10
-43.15
 20
275.11
 30
0.0
  0
VERTEX
  8
EVERYTHING
 10
-49.15
 20
275.11
 30
0.0
  0
SEQEND
  8
EVERYTHING
  0
CIRCLE
  8
EVERYTHING
 62
0
 10
-42.15
 20
272.11
 30
0.0
 40
1.0
  0
POLYLINE
  8
EVERYTHING
 62
0
 70
1
 66
1
 10
0.0
 20
0.0
 30
0.0
  0
VERTEX
  8
EVERYTHING
 10
-97.60005177375862
 20
254.76518680886875
 30
0.0
  0
VERTEX
  8
EVERYTHING
 10
-92.12518680886876
 20
257.2199482262414
 30
0.0
  0
VERTEX
  8
EVERYTHING
 10
-94.57994822624143
 20
262.6948131911313
 30
0.0
  0
VERTEX
  8
EVERYTHING
 10
-100.0548131911313
 20
260.24005177375864
 30
0.0
  0
SEQEND
  8
EVERYTHING
  0
CIRCLE
  8
EVERYTHING
 62
0
 10
-92.44009002340678
 20
260.3665076115818
 30
0.0
 40
1.0
  0
POLYLINE
  8
EVERYTHING
 62
0
 70
1
 66
1
 10
0.0
 20
0.0
 30
0.0
  0
VERTEX
  8
EVERYTHING
 10
-109.81634253951336
 20
248.7505241195598
 30
0.0
  0
VERTEX
  8
EVERYTHING
 10
-106.22052411955988
 20
253.55365746048668
 30
0.0
  0
VERTEX
  8
EVERYTHING
 10
-111.02365746048675
 20
257.14947588044015
 30
0.0
  0
VERTEX
  8
EVERYTHING
 10
-114.61947588044022
 20
252.34634253951327
 30
0.0
  0
SEQEND
  8
EVERYTHING
  0
CIRCLE
  8
EVERYTHING
 62
0
 10
-108.02278772003103
 20
256.15208889395126
 30
0.0
 40
1.0
  0
POLYLINE
  8
EVERYTHING
 62
0
 70
1
 66
1
 10
0.0
 20
0.0
 30
0.0
  0
VERTEX
  8
EVERYTHING
 10
-124.46109191880507
 20
242.12766696075937
 30
0.0
  0
VERTEX
  8
EVERYTHING
 10
-120.1676669607593
 20
246.3189080811949
 30
0.0
  0
VERTEX
  8
EVERYTHING
 10
-124.35890808119484
 20
250.61233303924067
 30
0.0
  0
VERTEX
  8
EVERYTHING
 10
-128.6523330392406
 20
246.42109191880513
 30
0.0
  0
SEQEND
  8
EVERYTHING
  0
CIRCLE
  8
EVERYTHING
 62
0
 10
-121.54771669463614
 20
249.164160746957
 30
0.0
 40
1.0
  0
POLYLINE
  8
EVERYTHING
 62
0
 70
1
 66
1
 10
0.0
 20
0.0
 30
0.0
  0
VERTEX
  8
EVERYTHING
 10
-141.0
 20
236.02
 30
0.0
  0
VERTEX
  8
EVERYTHING
 10
-135.0
 20
236.02
 30
0.0
  0
VERTEX
  8
EVERYTHING
 10
-135.0
 20
242.02
 30
0.0
  0
VERTEX
  8
EVERYTHING
 10
-141.0
 20
242.02
 30
0.0
  0
SEQEND
  8
EVERYTHING
  0
CIRCLE
  8
EVERYTHING
 62
0
 10
-134.0
 20
239.02
 30
0.0
 40
1.0
  0
POLYLINE
  8
EVERYTHING
 62
0
 70
1
 66
1
 10
0.0
 20
0.0
 30
0.0
  0
VERTEX
  8
EVERYTHING
 10
-152.4421409624299
 20
226.87573065282996
 30
0.0
  0
VERTEX
  8
EVERYTHING
 10
-147.11573065282994
 20
229.6378590375701
 30
0.0
  0
VERTEX
  8
EVERYTHING
 10
-149.8778590375701
 20
234.96426934717007
 30
0.0
  0
VERTEX
  8
EVERYTHING
 10
-155.20426934717005
 20
232.20214096242992
 30
0.0
  0
SEQEND
  8
EVERYTHING
  0
CIRCLE
  8
EVERYTHING
 62
0
 10
-147.60905979360004
 20
232.7614189231601
 30
0.0
 40
1.0
  0
POLYLINE
  8
EVERYTHING
 62
0
 70
1
 66
1
 10
0.0
 20
0.0
 30
0.0
  0
VERTEX
  8
EVERYTHING
 10
-165.72713608075904
 20
218.29521877970456
 30
0.0
  0
VERTEX
  8
EVERYTHING
 10
-160.0452187797046
 20
220.22286391924098
 30
0.0
  0
VERTEX
  8
EVERYTHING
 10
-161.97286391924104
 20
225.9047812202954
 30
0.0
  0
VERTEX
  8
EVERYTHING
 10
-167.65478122029546
 20
223.97713608075898
 30
0.0
  0
SEQEND
  8
EVERYTHING
  0
CIRCLE
  8
EVERYTHING
 62
0
 10
-160.06205513263038
 20
223.38509675969095
 30
0.0
 40
1.0
  0
POLYLINE
  8
EVERYTHING
 62
0
 70
1
 66
1
 10
0.0
 20
0.0
 30
0.0
  0
VERTEX
  8
EVERYTHING
 10
-178.4552980906974
 20
209.10590685078168
 30
0.0
  0
VERTEX
  8
EVERYTHING
 10
-172.5459068507817
 20
210.14470190930265
 30
0.0
  0
VERTEX
  8
EVERYTHING
 10
-173.58470190930268
 20
216.05409314921837
 30
0.0
  0
VERTEX
  8
EVERYTHING
 10
-179.49409314921837
 20
215.01529809069737
 30
0.0
  0
SEQEND
  8
EVERYTHING
  0
CIRCLE
  8
EVERYTHING
 62
0
 10
-172.08040584005622
 20
213.27253003901401
 30
0.0
 40
1.0
  0
POLYLINE
  8
EVERYTHING
 62
0
 70
1
 66
1
 10
0.0
 20
0.0
 30
0.0
  0
VERTEX
  8
EVERYTHING
 10
-216.38543623258397
 20
174.14419215276794
 30
0.0
  0
VERTEX
  8
EVERYTHING
 10
-210.70419215276797
 20
172.21456376741605
 30
0.0
  0
VERTEX
  8
EVERYTHING
 10
-208.77456376741608
 20
177.89580784723205
 30
0.0
  0
VERTEX
  8
EVERYTHING
 10
-214.45580784723208
 20
179.82543623258394
 30
0.0
  0
SEQEND
  8
EVERYTHING
  0
CIRCLE
  8
EVERYTHING
 62
0
 10
-208.79250394678934
 20
174.73358107643207
 30
0.0
 40
1.0
  0
POLYLINE
  8
EVERYTHING
 62
0
 70
1
 66
1
 10
0.0
 20
0.0
 30
0.0
  0
VERTEX
  8
EVERYTHING
 10
-226.134074804334
 20
162.53613529119716
 30
0.0
  0
VERTEX
  8
EVERYTHING
 10
-220.78613529119716
 20
159.81592519566598
 30
0.0
  0
VERTEX
  8
EVERYTHING
 10
-218.06592519566598
 20
165.16386470880283
 30
0.0
  0
VERTEX
  8
EVERYTHING
 10
-223.41386470880283
 20
167.884074804334
 30
0.0
  0
SEQEND
  8
EVERYTHING
  0
CIRCLE
  8
EVERYTHING
 62
0
 10
-218.5347069912421
 20
162.03652660297922
 30
0.0
 40
1.0
  0
POLYLINE
  8
EVERYTHING
 62
0
 70
1
 66
1
 10
0.0
 20
0.0
 30
0.0
  0
VERTEX
  8
EVERYTHING
 10
-235.09779911993826
 20
150.42108558449343
 30
0.0
  0
VERTEX
  8
EVERYTHING
 10
-230.18108558449347
 20
146.98220088006175
 30
0.0
  0
VERTEX
  8
EVERYTHING
 10
-226.7422008800618
 20
151.89891441550657
 30
0.0
  0
VERTEX
  8
EVERYTHING
 10
-231.6589144155066
 20
155.3377991199382
 30
0.0
  0
SEQEND
  8
EVERYTHING
  0
CIRCLE
  8
EVERYTHING
 62
0
 10
-227.64219097637013
 20
148.86741019704556
 30
0.0
 40
1.0
  0
POLYLINE
  8
EVERYTHING
 62
0
 70
1
 66
1
 10
0.0
 20
0.0
 30
0.0
  0
VERTEX
  8
EVERYTHING
 10
-242.02
 20
135.0
 30
0.0
  0
VERTEX
  8
EVERYTHING
 10
-236.02
 20
135.0
 30
0.0
  0
VERTEX
  8
EVERYTHING
 10
-236.02
 20
141.0
 30
0.0
  0
VERTEX
  8
EVERYTHING
 10
-242.02
 20
141.0
 30
0.0
  0
SEQEND
  8
EVERYTHING
  0
CIRCLE
  8
EVERYTHING
 62
0
 10
-235.02
 20
138.0
 30
0.0
 40
1.0
  0
POLYLINE
  8
EVERYTHING
 62
0
 70
1
 66
1
 10
0.0
 20
0.0
 30
0.0
  0
VERTEX
  8
EVERYTHING
 10
-249.37
 20
121.41
 30
0.0
  0
VERTEX
  8
EVERYTHING
 10
-243.37
 20
121.41
 30
0.0
  0
VERTEX
  8
EVERYTHING
 10
-243.37
 20
127.41
 30
0.0
  0
VERTEX
  8
EVERYTHING
 10
-249.37
 20
127.41
 30
0.0
  0
SEQEND
  8
EVERYTHING
  0
CIRCLE
  8
EVERYTHING
 62
0
 10
-242.37
 20
124.41
 30
0.0
 40
1.0
  0
POLYLINE
  8
EVERYTHING
 62
0
 70
1
 66
1
 10
0.0
 20
0.0
 30
0.0
  0
VERTEX
  8
EVERYTHING
 10
-257.0736812873477
 20
111.41762349630432
 30
0.0
  0
VERTEX
  8
EVERYTHING
 10
-253.94762349630426
 20
106.29631871265235
 30
0.0
  0
VERTEX
  8
EVERYTHING
 10
-248.8263187126523
 20
109.4223765036958
 30
0.0
  0
VERTEX
  8
EVERYTHING
 10
-251.95237650369575
 20
114.54368128734777
 30
0.0
  0
SEQEND
  8
EVERYTHING
  0
CIRCLE
  8
EVERYTHING
 62
0
 10
-250.8659614726377
 20
107.00579681089874
 30
0.0
 40
1.0
  0
POLYLINE
  8
EVERYTHING
 62
0
 70
1
 66
1
 10
0.0
 20
0.0
 30
0.0
  0
VERTEX
  8
EVERYTHING
 10
-262.6703307490293
 20
97.66282980269787
 30
0.0
  0
VERTEX
  8
EVERYTHING
 10
-260.3028298026979
 20
92.14966925097076
 30
0.0
  0
VERTEX
  8
EVERYTHING
 10
-254.78966925097077
 20
94.51717019730216
 30
0.0
  0
VERTEX
  8
EVERYTHING
 10
-257.1571701973022
 20
100.03033074902926
 30
0.0
  0
SEQEND
  8
EVERYTHING
  0
CIRCLE
  8
EVERYTHING
 62
0
 10
-257.15166603577904
 20
92.41455963218195
 30
0.0
 40
1.0
  0
POLYLINE
  8
EVERYTHING
 62
0
 70
1
 66
1
 10
0.0
 20
0.0
 30
0.0
  0
VERTEX
  8
EVERYTHING
 10
-274.4713929241468
 20
49.674744452834744
 30
0.0
  0
VERTEX
  8
EVERYTHING
 10
-275.63474445283475
 20
43.78860707585317
 30
0.0
  0
VERTEX
  8
EVERYTHING
 10
-269.74860707585316
 20
42.625255547165246
 30
0.0
  0
VERTEX
  8
EVERYTHING
 10
-268.5852555471652
 20
48.51139292414681
 30
0.0
  0
SEQEND
  8
EVERYTHING
  0
CIRCLE
  8
EVERYTHING
 62
0
 10
-272.8855676857919
 20
42.22590841534563
 30
0.0
 40
1.0000000000000002
  0
POLYLINE
  8
EVERYTHING
 62
0
 70
1
 66
1
 10
0.0
 20
0.0
 30
0.0
  0
VERTEX
  8
EVERYTHING
 10
-275.54578665982956
 20
34.896278339239785
 30
0.0
  0
VERTEX
  8
EVERYTHING
 10
-278.3162783392398
 20
29.574213340170456
 30
0.0
  0
VERTEX
  8
EVERYTHING
 10
-272.99421334017046
 20
26.80372166076025
 30
0.0
  0
VERTEX
  8
EVERYTHING
 10
-270.22372166076025
 20
32.12578665982958
 30
0.0
  0
SEQEND
  8
EVERYTHING
  0
CIRCLE
  8
EVERYTHING
 62
0
 10
-236.34918944628555
 20
-135.02228762534605
 30
0.0
 40
1.0
  0
POLYLINE
  8
EVERYTHING
 62
0
 70
1
 66
1
 10
0.0
 20
0.0
 30
0.0
  0
VERTEX
  8
EVERYTHING
 10
-231.27722862452742
 20
-155.38757468412066
 30
0.0
  0
VERTEX
  8
EVERYTHING
 10
-226.69242531587932
 20
-151.51722862452738
 30
0.0
  0
VERTEX
  8
EVERYTHING
 10
-230.5627713754726
 20
-146.93242531587927
 30
0.0
  0
VERTEX
  8
EVERYTHING
 10
-235.1475746841207
 20
-150.80277137547256
 30
0.0
  0
SEQEND
  8
EVERYTHING
  0
CIRCLE
  8
EVERYTHING
 62
0
 10
-227.86346446090124
 20
-148.57976929360441
 30
0.0
 40
1.0
  0
POLYLINE
  8
EVERYTHING
 62
0
 70
1
 66
1
 10
0.0
 20
0.0
 30
0.0
  0
VERTEX
  8
EVERYTHING
 10
-223.04933527059643
 20
-167.98506499876382
 30
0.0
  0
VERTEX
  8
EVERYTHING
 10
-217.96493500123617
 20
-164.79933527059643
 30
0.0
  0
VERTEX
  8
EVERYTHING
 10
-221.15066472940356
 20
-159.7149350012362
 30
0.0
  0
VERTEX
  8
EVERYTHING
 10
-226.23506499876382
 20
-162.90066472940356
 30
0.0
  0
SEQEND
  8
EVERYTHING
  0
CIRCLE
  8
EVERYTHING
 62
0
 10
-218.71039982042652
 20
-161.72618018122174
 30
0.0
 40
1.0
  0
POLYLINE
  8
EVERYTHING
 62
0
 70
1
 66
1
 10
0.0
 20
0.0
 30
0.0
  0
VERTEX
  8
EVERYTHING
 10
-214.1142431144923
 20
-179.97551489260667
 30
0.0
  0
VERTEX
  8
EVERYTHING
 10
-208.62448510739335
 20
-177.55424311449232
 30
0.0
  0
VERTEX
  8
EVERYTHING
 10
-211.0457568855077
 20
-172.06448510739338
 30
0.0
  0
VERTEX
  8
EVERYTHING
 10
-216.53551489260664
 20
-174.48575688550773
 30
0.0
  0
SEQEND
  8
EVERYTHING
  0
CIRCLE
  8
EVERYTHING
 62
0
 10
-208.92016132860073
 20
-174.40581881459045
 30
0.0
 40
1.0
  0
POLYLINE
  8
EVERYTHING
 62
0
 70
1
 66
1
 10
0.0
 20
0.0
 30
0.0
  0
VERTEX
  8
EVERYTHING
 10
-179.01947635553444
 20
-215.58052355308035
 30
0.0
  0
VERTEX
  8
EVERYTHING
 10
-173.01947644691967
 20
-215.57947635553447
 30
0.0
  0
VERTEX
  8
EVERYTHING
 10
-173.02052364446553
 20
-209.5794764469197
 30
0.0
  0
VERTEX
  8
EVERYTHING
 10
-179.02052355308032
 20
-209.5805236444656
 30
0.0
  0
SEQEND
  8
EVERYTHING
  0
CIRCLE
  8
EVERYTHING
 62
0
 10
-172.02000006092348
 20
-212.57930186830276
 30
0.0
 40
1.0
  0
POLYLINE
  8
EVERYTHING
 62
0
 70
1
 66
1
 10
0.0
 20
0.0
 30
0.0
  0
VERTEX
  8
EVERYTHING
 10
-166.85
 20
-225.1
 30
0.0
  0
VERTEX
  8
EVERYTHING
 10
-160.85
 20
-225.1
 30
0.0
  0
VERTEX
  8
EVERYTHING
 10
-160.85
 20
-219.1
 30
0.0
  0
VERTEX
  8
EVERYTHING
 10
-166.85
 20
-219.1
 30
0.0
  0
SEQEND
  8
EVERYTHING
  0
CIRCLE
  8
EVERYTHING
 62
0
 10
-159.85
 20
-222.1
 30
0.0
 40
1.0
  0
POLYLINE
  8
EVERYTHING
 62
0
 70
1
 66
1
 10
0.0
 20
0.0
 30
0.0
  0
VERTEX
  8
EVERYTHING
 10
-154.16
 20
-233.92
 30
0.0
  0
VERTEX
  8
EVERYTHING
 10
-148.16
 20
-233.92
 30
0.0
  0
VERTEX
  8
EVERYTHING
 10
-148.16
 20
-227.92
 30
0.0
  0
VERTEX
  8
EVERYTHING
 10
-154.16
 20
-227.92
 30
0.0
  0
SEQEND
  8
EVERYTHING
  0
CIRCLE
  8
EVERYTHING
 62
0
 10
-147.16
 20
-230.92
 30
0.0
 40
1.0
  0
POLYLINE
  8
EVERYTHING
 62
0
 70
1
 66
1
 10
0.0
 20
0.0
 30
0.0
  0
VERTEX
  8
EVERYTHING
 10
-141.0
 20
-242.02
 30
0.0
  0
VERTEX
  8
EVERYTHING
 10
-135.0
 20
-242.02
 30
0.0
  0
VERTEX
  8
EVERYTHING
 10
-135.0
 20
-236.02
 30
0.0
  0
VERTEX
  8
EVERYTHING
 10
-141.0
 20
-236.02
 30
0.0
  0
SEQEND
  8
EVERYTHING
  0
CIRCLE
  8
EVERYTHING
 62
0
 10
-134.0
 20
-239.02
 30
0.0
 40
1.0
  0
POLYLINE
  8
EVERYTHING
 62
0
 70
1
 66
1
 10
0.0
 20
0.0
 30
0.0
  0
VERTEX
  8
EVERYTHING
 10
-127.41
 20
-249.37
 30
0.0
  0
VERTEX
  8
EVERYTHING
 10
-121.41
 20
-249.37
 30
0.0
  0
VERTEX
  8
EVERYTHING
 10
-121.41
 20
-243.37
 30
0.0
  0
VERTEX
  8
EVERYTHING
 10
-127.41
 20
-243.37
 30
0.0
  0
SEQEND
  8
EVERYTHING
  0
CIRCLE
  8
EVERYTHING
 62
0
 10
-120.41
 20
-246.37
 30
0.0
 40
1.0
  0
POLYLINE
  8
EVERYTHING
 62
0
 70
1
 66
1
 10
0.0
 20
0.0
 30
0.0
  0
VERTEX
  8
EVERYTHING
 10
-114.55572675206686
 20
-253.8964482195232
 30
0.0
  0
VERTEX
  8
EVERYTHING
 10
-109.47355178047683
 20
-257.0857267520669
 30
0.0
  0
VERTEX
  8
EVERYTHING
 10
-106.28427324793317
 20
-252.0035517804768
 30
0.0
  0
VERTEX
  8
EVERYTHING
 10
-111.3664482195232
 20
-248.81427324793316
 30
0.0
  0
SEQEND
  8
EVERYTHING
  0
CIRCLE
  8
EVERYTHING
 62
0
 10
-107.03188335227331
 20
-255.07618568836241
 30
0.0
 40
1.0
  0
POLYLINE
  8
EVERYTHING
 62
0
 70
1
 66
1
 10
0.0
 20
0.0
 30
0.0
  0
VERTEX
  8
EVERYTHING
 10
-100.1886506009314
 20
-259.8259303132429
 30
0.0
  0
VERTEX
  8
EVERYTHING
 10
-94.99406968675711
 20
-262.82865060093144
 30
0.0
  0
VERTEX
  8
EVERYTHING
 10
-91.99134939906858
 20
-257.63406968675713
 30
0.0
  0
VERTEX
  8
EVERYTHING
 10
-97.18593031324286
 20
-254.63134939906863
 30
0.0
  0
SEQEND
  8
EVERYTHING
  0
CIRCLE
  8
EVERYTHING
 62
0
 10
-92.62694605721714
 20
-260.7318135251257
 30
0.0
 40
1.0
  0
POLYLINE
  8
EVERYTHING
 62
0
 70
1
 66
1
 10
0.0
 20
0.0
 30
0.0
  0
VERTEX
  8
EVERYTHING
 10
-46.46220031984956
 20
-276.34113825823334
 30
0.0
  0
VERTEX
  8
EVERYTHING
 10
-41.91886174176667
 20
-272.42220031984954
 30
0.0
  0
VERTEX
  8
EVERYTHING
 10
-45.837799680150454
 20
-267.8788617417667
 30
0.0
  0
VERTEX
  8
EVERYTHING
 10
-50.38113825823334
 20
-271.79779968015043
 30
0.0
  0
SEQEND
  8
EVERYTHING
  0
CIRCLE
  8
EVERYTHING
 62
0
 10
-43.12110761461142
 20
-269.49737470774414
 30
0.0
 40
0.9999999999999999
  0
POLYLINE
  8
EVERYTHING
 62
0
 70
1
 66
1
 10
0.0
 20
0.0
 30
0.0
  0
VERTEX
  8
EVERYTHING
 10
-33.92086863326108
 20
-277.19741623915235
 30
0.0
  0
VERTEX
  8
EVERYTHING
 10
-27.922583760847594
 20
-277.34086863326104
 30
0.0
  0
VERTEX
  8
EVERYTHING
 10
-27.779131366738905
 20
-271.34258376084756
 30
0.0
  0
VERTEX
  8
EVERYTHING
 10
-33.777416239152394
 20
-271.19913136673887
 30
0.0
  0
SEQEND
  8
EVERYTHING
  0
CIRCLE
  8
EVERYTHING
 62
0
 10
-26.851143418391004
 20
-274.36563492940576
 30
0.0
 40
1.0
  0
POLYLINE
  8
EVERYTHING
 62
0
 70
1
 66
1
 10
0.0
 20
0.0
 30
0.0
  0
VERTEX
  8
EVERYTHING
 10
-11.593054620172268
 20
-277.33747626208265
 30
0.0
  0
VERTEX
  8
EVERYTHING
 10
-13.68252373791733
 20
-271.7130546201723
 30
0.0
  0
VERTEX
  8
EVERYTHING
 10
-19.306945379827695
 20
-273.80252373791734
 30
0.0
  0
VERTEX
  8
EVERYTHING
 10
-17.217476262082634
 20
-279.4269453798277
 30
0.0
  0
SEQEND
  8
EVERYTHING
  0
CIRCLE
  8
EVERYTHING
 62
0
 10
-16.842979411830072
 20
-271.82038557205976
 30
0.0
 40
1.0000000000000002
  0
POLYLINE
  8
EVERYTHING
 62
0
 70
1
 66
1
 10
0.0
 20
0.0
 30
0.0
  0
VERTEX
  8
EVERYTHING
 10
4.01318012308036
 20
-277.37636670248617
 30
0.0
  0
VERTEX
  8
EVERYTHING
 10
1.3763667024861466
 20
-271.98681987691964
 30
0.0
  0
VERTEX
  8
EVERYTHING
 10
-4.013180123080382
 20
-274.62363329751383
 30
0.0
  0
VERTEX
  8
EVERYTHING
 10
-1.3763667024861688
 20
-280.01318012308036
 30
0.0
  0
SEQEND
  8
EVERYTHING
  0
CIRCLE
  8
EVERYTHING
 62
0
 10
-1.757875613729482
 20
-272.40696878295563
 30
0.0
 40
1.0
  0
POLYLINE
  8
EVERYTHING
 62
0
 70
1
 66
1
 10
0.0
 20
0.0
 30
0.0
  0
VERTEX
  8
EVERYTHING
 10
19.460288667621313
 20
-276.95476886242716
 30
0.0
  0
VERTEX
  8
EVERYTHING
 10
16.834768862427197
 20
-271.55971133237864
 30
0.0
  0
VERTEX
  8
EVERYTHING
 10
11.439711332378657
 20
-274.1852311375727
 30
0.0
  0
VERTEX
  8
EVERYTHING
 10
14.065231137572773
 20
-279.5802886676213
 30
0.0
  0
SEQEND
  8
EVERYTHING
  0
CIRCLE
  8
EVERYTHING
 62
0
 10
13.699653463203902
 20
-271.9732949799676
 30
0.0
 40
1.0
  0
POLYLINE
  8
EVERYTHING
 62
0
 70
1
 66
1
 10
0.0
 20
0.0
 30
0.0
  0
VERTEX
  8
EVERYTHING
 10
34.7839852747837
 20
-275.8586345891316
 30
0.0
  0
VERTEX
  8
EVERYTHING
 10
32.4386345891316
 20
-270.3360147252164
 30
0.0
  0
VERTEX
  8
EVERYTHING
 10
26.916014725216357
 20
-272.68136541086847
 30
0.0
  0
VERTEX
  8
EVERYTHING
 10
29.261365410868457
 20
-278.2039852747837
 30
0.0
  0
SEQEND
  8
EVERYTHING
  0
CIRCLE
  8
EVERYTHING
 62
0
 10
29.28643287623194
 20
-270.58825342405646
 30
0.0
 40
1.0000000000000002
  0
POLYLINE
  8
EVERYTHING
 62
0
 70
1
 66
1
 10
0.0
 20
0.0
 30
0.0
  0
VERTEX
  8
EVERYTHING
 10
49.94456929632017
 20
-274.0076943524773
 30
0.0
  0
VERTEX
  8
EVERYTHING
 10
48.04769435247733
 20
-268.3154307036798
 30
0.0
  0
VERTEX
  8
EVERYTHING
 10
42.35543070367984
 20
-270.21230564752267
 30
0.0
  0
VERTEX
  8
EVERYTHING
 10
44.25230564752268
 20
-275.9045692963201
 30
0.0
  0
SEQEND
  8
EVERYTHING
  0
CIRCLE
  8
EVERYTHING
 62
0
 10
44.885416704104784
 20
-268.3151575674683
 30
0.0
 40
1.0000000000000002
  0
POLYLINE
  8
EVERYTHING
 62
0
 70
1
 66
1
 10
0.0
 20
0.0
 30
0.0
  0
VERTEX
  8
EVERYTHING
 10
98.94480254687491
 20
-261.8684872818536
 30
0.0
  0
VERTEX
  8
EVERYTHING
 10
99.2284872818536
 20
-255.87519745312514
 30
0.0
  0
VERTEX
  8
EVERYTHING
 10
93.23519745312514
 20
-255.59151271814648
 30
0.0
  0
VERTEX
  8
EVERYTHING
 10
92.95151271814645
 20
-261.5848025468749
 30
0.0
  0
SEQEND
  8
EVERYTHING
  0
CIRCLE
  8
EVERYTHING
 62
0
 10
96.2791231566525
 20
-254.7344734475144
 30
0.0
 40
1.0
  0
POLYLINE
  8
EVERYTHING
 62
0
 70
1
 66
1
 10
0.0
 20
0.0
 30
0.0
  0
VERTEX
  8
EVERYTHING
 10
112.8571167877081
 20
-256.4228175539569
 30
0.0
  0
VERTEX
  8
EVERYTHING
 10
113.89281755395693
 20
-250.5128832122919
 30
0.0
  0
VERTEX
  8
EVERYTHING
 10
107.98288321229191
 20
-249.47718244604306
 30
0.0
  0
VERTEX
  8
EVERYTHING
 10
106.94718244604307
 20
-255.3871167877081
 30
0.0
  0
SEQEND
  8
EVERYTHING
  0
CIRCLE
  8
EVERYTHING
 62
0
 10
111.11046717749923
 20
-249.01004377222333
 30
0.0
 40
0.9999999999999999
  0
POLYLINE
  8
EVERYTHING
 62
0
 70
1
 66
1
 10
0.0
 20
0.0
 30
0.0
  0
VERTEX
  8
EVERYTHING
 10
126.37166023297831
 20
-250.13189967042604
 30
0.0
  0
VERTEX
  8
EVERYTHING
 10
128.17189967042597
 20
-244.4083397670217
 30
0.0
  0
VERTEX
  8
EVERYTHING
 10
122.44833976702161
 20
-242.60810032957403
 30
0.0
  0
VERTEX
  8
EVERYTHING
 10
120.64810032957395
 20
-248.33166023297838
 30
0.0
  0
SEQEND
  8
EVERYTHING
  0
CIRCLE
  8
EVERYTHING
 62
0
 10
125.61015962496512
 20
-242.55429339773045
 30
0.0
 40
0.9999999999999999
  0
POLYLINE
  8
EVERYTHING
 62
0
 70
1
 66
1
 10
0.0
 20
0.0
 30
0.0
  0
VERTEX
  8
EVERYTHING
 10
139.4357497874703
 20
-243.0123204465297
 30
0.0
  0
VERTEX
  8
EVERYTHING
 10
141.99232044652967
 20
-237.58425021252972
 30
0.0
  0
VERTEX
  8
EVERYTHING
 10
136.5642502125297
 20
-235.02767955347034
 30
0.0
  0
VERTEX
  8
EVERYTHING
 10
134.0076795534703
 20
-240.45574978747032
 30
0.0
  0
SEQEND
  8
EVERYTHING
  0
CIRCLE
  8
EVERYTHING
 62
0
 10
139.70438043937293
 20
-235.40128651066672
 30
0.0
 40
1.0
  0
POLYLINE
  8
EVERYTHING
 62
0
 70
1
 66
1
 10
0.0
 20
0.0
 30
0.0
  0
VERTEX
  8
EVERYTHING
 10
152.01890338695145
 20
-235.07479060505858
 30
0.0
  0
VERTEX
  8
EVERYTHING
 10
155.3147906050586
 20
-230.0610966130485
 30
0.0
  0
VERTEX
  8
EVERYTHING
 10
150.30109661304851
 20
-226.76520939494137
 30
0.0
  0
VERTEX
  8
EVERYTHING
 10
147.00520939494137
 20
-231.77890338695144
 30
0.0
  0
SEQEND
  8
EVERYTHING
  0
CIRCLE
  8
EVERYTHING
 62
0
 10
153.3572581454047
 20
-227.5775373386599
 30
0.0
 40
1.0
  0
POLYLINE
  8
EVERYTHING
 62
0
 70
1
 66
1
 10
0.0
 20
0.0
 30
0.0
  0
VERTEX
  8
EVERYTHING
 10
164.08904853345265
 20
-226.33590082493134
 30
0.0
  0
VERTEX
  8
EVERYTHING
 10
168.08590082493137
 20
-221.86095146654736
 30
0.0
  0
VERTEX
  8
EVERYTHING
 10
163.6109514665474
 20
-217.86409917506862
 30
0.0
  0
VERTEX
  8
EVERYTHING
 10
159.61409917506867
 20
-222.33904853345263
 30
0.0
  0
SEQEND
  8
EVERYTHING
  0
CIRCLE
  8
EVERYTHING
 62
0
 10
166.5145681943192
 20
-219.11670042774398
 30
0.0
 40
1.0
  0
POLYLINE
  8
EVERYTHING
 62
0
 70
1
 66
1
 10
0.0
 20
0.0
 30
0.0
  0
VERTEX
  8
EVERYTHING
 10
175.58757115683144
 20
-216.80054561586485
 30
0.0
  0
VERTEX
  8
EVERYTHING
 10
180.24054561586485
 20
-213.01242884316858
 30
0.0
  0
VERTEX
  8
EVERYTHING
 10
176.45242884316858
 20
-208.35945438413518
 30
0.0
  0
VERTEX
  8
EVERYTHING
 10
171.79945438413517
 20
-212.14757115683145
 30
0.0
  0
SEQEND
  8
EVERYTHING
  0
CIRCLE
  8
EVERYTHING
 62
0
 10
179.12198297268893
 20
-210.0545888182025
 30
0.0
 40
1.0
  0
POLYLINE
  8
EVERYTHING
 62
0
 70
1
 66
1
 10
0.0
 20
0.0
 30
0.0
  0
VERTEX
  8
EVERYTHING
 10
209.55705034078062
 20
-178.99687341985268
 30
0.0
  0
VERTEX
  8
EVERYTHING
 10
215.55687341985268
 20
-179.04294965921937
 30
0.0
  0
VERTEX
  8
EVERYTHING
 10
215.60294965921938
 20
-173.04312658014732
 30
0.0
  0
VERTEX
  8
EVERYTHING
 10
209.60312658014732
 20
-172.99705034078062
 30
0.0
  0
SEQEND
  8
EVERYTHING
  0
CIRCLE
  8
EVERYTHING
 62
0
 10
216.57988205271474
 20
-176.05071749291113
 30
0.0
 40
1.0
  0
POLYLINE
  8
EVERYTHING
 62
0
 70
1
 66
1
 10
0.0
 20
0.0
 30
0.0
  0
VERTEX
  8
EVERYTHING
 10
218.30113474275245
 20
-165.73907987053954
 30
0.0
  0
VERTEX
  8
EVERYTHING
 10
223.9890798705395
 20
-167.6488652572475
 30
0.0
  0
VERTEX
  8
EVERYTHING
 10
225.8988652572475
 20
-161.96092012946045
 30
0.0
  0
VERTEX
  8
EVERYTHING
 10
220.21092012946042
 20
-160.05113474275248
 30
0.0
  0
SEQEND
  8
EVERYTHING
  0
CIRCLE
  8
EVERYTHING
 62
0
 10
225.89196341852468
 20
-165.1231902578053
 30
0.0
 40
1.0
  0
POLYLINE
  8
EVERYTHING
 62
0
 70
1
 66
1
 10
0.0
 20
0.0
 30
0.0
  0
VERTEX
  8
EVERYTHING
 10
226.67929315138412
 20
-151.28808366055912
 30
0.0
  0
VERTEX
  8
EVERYTHING
 10
231.0480836605591
 20
-155.40070684861593
 30
0.0
  0
VERTEX
  8
EVERYTHING
 10
235.16070684861592
 20
-151.03191633944095
 30
0.0
  0
VERTEX
  8
EVERYTHING
 10
230.79191633944092
 20
-146.91929315138415
 30
0.0
  0
SEQEND
  8
EVERYTHING
  0
CIRCLE
  8
EVERYTHING
 62
0
 10
233.83252700611666
 20
-153.90174879203792
 30
0.0
 40
1.0
  0
POLYLINE
  8
EVERYTHING
 62
0
 70
1
 66
1
 10
0.0
 20
0.0
 30
0.0
  0
VERTEX
  8
EVERYTHING
 10
235.35319256037928
 20
-135.865867107994
 30
0.0
  0
VERTEX
  8
EVERYTHING
 10
236.88586710799402
 20
-141.66680743962075
 30
0.0
  0
VERTEX
  8
EVERYTHING
 10
242.6868074396208
 20
-140.13413289200602
 30
0.0
  0
VERTEX
  8
EVERYTHING
 10
241.15413289200603
 20
-134.33319256037927
 30
0.0
  0
SEQEND
  8
EVERYTHING
  0
CIRCLE
  8
EVERYTHING
 62
0
 10
240.0417830317432
 20
-141.86729355441787
 30
0.0
 40
1.0
  0
POLYLINE
  8
EVERYTHING
 62
0
 70
1
 66
1
 10
0.0
 20
0.0
 30
0.0
  0
VERTEX
  8
EVERYTHING
 10
244.36905352488117
 20
-120.66884867938899
 30
0.0
  0
VERTEX
  8
EVERYTHING
 10
242.62884867938894
 20
-126.41094647511882
 30
0.0
  0
VERTEX
  8
EVERYTHING
 10
248.37094647511879
 20
-128.15115132061104
 30
0.0
  0
VERTEX
  8
EVERYTHING
 10
250.111151320611
 20
-122.40905352488122
 30
0.0
  0
SEQEND
  8
EVERYTHING
  0
CIRCLE
  8
EVERYTHING
 62
0
 10
245.20986343633848
 20
-128.23806519715325
 30
0.0
 40
1.0
  0
POLYLINE
  8
EVERYTHING
 62
0
 70
1
 66
1
 10
0.0
 20
0.0
 30
0.0
  0
VERTEX
  8
EVERYTHING
 10
252.60236434944426
 20
-106.19162567238158
 30
0.0
  0
VERTEX
  8
EVERYTHING
 10
248.7216256723815
 20
-110.7676356505557
 30
0.0
  0
VERTEX
  8
EVERYTHING
 10
253.29763565055563
 20
-114.64837432761847
 30
0.0
  0
VERTEX
  8
EVERYTHING
 10
257.17837432761837
 20
-110.07236434944433
 30
0.0
  0
SEQEND
  8
EVERYTHING
  0
CIRCLE
  8
EVERYTHING
 62
0
 10
250.3628408819581
 20
-113.47067331878277
 30
0.0
 40
1.0000000000000002
  0
POLYLINE
  8
EVERYTHING
 62
0
 70
1
 66
1
 10
0.0
 20
0.0
 30
0.0
  0
VERTEX
  8
EVERYTHING
 10
259.5395340072529
 20
-91.92530857192264
 30
0.0
  0
VERTEX
  8
EVERYTHING
 10
254.56530857192263
 20
-95.28046599274712
 30
0.0
  0
VERTEX
  8
EVERYTHING
 10
257.9204659927471
 20
-100.25469142807738
 30
0.0
  0
VERTEX
  8
EVERYTHING
 10
262.89469142807735
 20
-96.8995340072529
 30
0.0
  0
SEQEND
  8
EVERYTHING
  0
CIRCLE
  8
EVERYTHING
 62
0
 10
255.41384970977987
 20
-98.32677161388301
 30
0.0
 40
1.0000000000000002
  0
TEXT
  8
0
 62
0
 10
-49.538569815525335
 20
268.04651878413716
 30
0.0
 40
3.6
  1
9
 50
240.35000000000002
  7
STANDARD
  0
TEXT
  8
0
 62
0
 10
53.35172177030267
 20
270.7900817684138
 30
0.0
 40
4.800000000000001
  1
0
 50
181.52000000000004
  7
STANDARD
  0
TEXT
  8
0
 62
0
 10
-91.12087188561419
 20
-256.90184930631784
 30
0.0
 40
3.6
  1
2
 50
329.65000000000003
  7
STANDARD
  0
TEXT
  8
0
 62
0
 10
-261.18783284640114
 20
-89.19314420402735
 30
0.0
 40
4.800000000000001
  1
0
 50
61.52
  7
STANDARD
  0
TEXT
  8
0
 62
0
 10
-207.36327949079254
 20
-176.92564689852296
 30
0.0
 40
3.6
  1
1
 50
359.6500000000036
  7
STANDARD
  0
TEXT
  8
0
 62
0
 10
-181.59693756438642
 20
-207.8361110760985
 30
0.0
 40
4.800000000000001
  1
0
 50
31.520000000000042
  7
STANDARD
  0
TEXT
  8
0
 62
0
 10
-270.7900817684138
 20
53.35172177030267
 30
0.0
 40
4.800000000000001
  1
0
 50
91.52000000000004
  7
STANDARD
  0
TEXT
  8
0
 62
0
 10
-268.04651878413716
 20
-49.538569815525335
 30
0.0
 40
3.6
  1
12
 50
330.35
  7
STANDARD
  0
TEXT
  8
0
 62
0
 10
207.8361110760985
 20
-181.59693756438642
 30
0.0
 40
4.800000000000001
  1
0
 50
301.52000000000004
  7
STANDARD
  0
TEXT
  8
0
 62
0
 10
89.19314420402735
 20
-261.18783284640114
 30
0.0
 40
4.800000000000001
  1
0
 50
331.5200000000001
  7
STANDARD
  0
TEXT
  8
0
 62
0
 10
176.92564689852296
 20
-207.36327949079254
 30
0.0
 40
3.6
  1
4
 50
90.34999999999995
  7
STANDARD
  0
TEXT
  8
0
 62
0
 10
256.90184930631784
 20
-91.12087188561419
 30
0.0
 40
3.6
  1
5
 50
120.35000000000005
  7
STANDARD
  0
TEXT
  8
0
 62
0
 10
-53.35172177030266
 20
-270.7900817684138
 30
0.0
 40
4.800000000000001
  1
0
 50
358.48000000000053
  7
STANDARD
  0
TEXT
  8
0
 62
0
 10
49.538569815525335
 20
-268.04651878413716
 30
0.0
 40
3.6
  1
3
 50
60.35
  7
STANDARD
  0
INSERT
  2
INSERTS
  8
0
 62
0
 10
0.0
 20
0.0
 30
0.0
  0
TEXT
  8
0
 62
0
 10
270.7900817684138
 20
-53.35172177030264
 30
0.0
 40
4.800000000000001
  1
0
 50
271.52
  7
STANDARD
  0
TEXT
  8
0
 62
0
 10
268.0465187841371
 20
49.53856981552536
 30
0.0
 40
3.6
  1
6.
 50
150.35
  7
STANDARD
  0
TEXT
  8
0
 62
0
 10
261.18783284640114
 20
89.19314420402735
 30
0.0
 40
4.800000000000001
  1
0
 50
241.52000000000004
  7
STANDARD
  0
TEXT
  8
0
 62
0
 10
207.36327949079254
 20
176.92564689852296
 30
0.0
 40
3.6
  1
7
 50
180.35
  7
STANDARD
  0
TEXT
  8
0
 62
0
 10
181.59693756438645
 20
207.8361110760985
 30
0.0
 40
4.800000000000001
  1
0
 50
211.52
  7
STANDARD
  0
TEXT
  8
0
 62
0
 10
91.12087188561422
 20
256.90184930631784
 30
0.0
 40
3.6
  1
8
 50
210.35
  7
STANDARD
  0
TEXT
  8
0
 62
0
 10
-176.92564689852296
 20
207.3632794907925
 30
0.0
 40
3.6
  1
10
 50
270.35
  7
STANDARD
  0
TEXT
  8
0
 62
0
 10
-256.90184930631784
 20
91.12087188561419
 30
0.0
 40
3.6
  1
11
 50
300.34999999999997
  7
STANDARD
  0
TEXT
  8
0
 62
0
 10
-207.83611107609846
 20
181.59693756438642
 30
0.0
 40
4.800000000000001
  1
0
 50
121.52000000000005
  7
STANDARD
  0
ENDSEC
  0
EOF
