<svg xmlns="http://www.w3.org/2000/svg" viewBox="0 0 1607.91 1607.91"><defs><style>.cls-1{fill:none;stroke:red;stroke-miterlimit:10;stroke-width:0.1px;}.cls-2,.cls-3{font-size:20px;font-family:MyriadPro-Regular, Myriad Pro;}.cls-3{text-decoration:underline;}</style></defs><g id="Shim_trays" data-name="Shim trays"><g id="LINE"><line class="cls-1" x1="642.4" y1="19.37" x2="645.93" y2="35.98"/></g><g id="LINE-2" data-name="LINE"><line class="cls-1" x1="637.53" y1="60.4" x2="633.2" y2="41.64"/></g><g id="LINE-3" data-name="LINE"><line class="cls-1" x1="637.53" y1="60.4" x2="638.64" y2="65.38"/></g><g id="LINE-4" data-name="LINE"><line class="cls-1" x1="970.38" y1="60.4" x2="969.27" y2="65.38"/></g><g id="ARC"><path class="cls-1" d="M691.05,62.44a2.82,2.82,0,0,0-2.21,3.34v0" transform="translate(-46.44 -46.44)"/></g><g id="ARC-2" data-name="ARC"><path class="cls-1" d="M1015.71,111.82a756.75,756.75,0,0,0-330.63,0" transform="translate(-46.44 -46.44)"/></g><g id="ARC-3" data-name="ARC"><path class="cls-1" d="M692.37,82.42q-5.29,1.1-10.58,2.25" transform="translate(-46.44 -46.44)"/></g><g id="ARC-4" data-name="ARC"><path class="cls-1" d="M681.79,84.67a2.84,2.84,0,0,0-2.16,3.38v0" transform="translate(-46.44 -46.44)"/></g><g id="ARC-5" data-name="ARC"><path class="cls-1" d="M1008.42,82.42" transform="translate(-46.44 -46.44)"/></g><g id="ARC-6" data-name="ARC"><path class="cls-1" d="M1012,65.81a2.85,2.85,0,0,0-2.19-3.37h0" transform="translate(-46.44 -46.44)"/></g><g id="ARC-7" data-name="ARC"><path class="cls-1" d="M1009.74,62.44a803.8,803.8,0,0,0-318.69,0" transform="translate(-46.44 -46.44)"/></g><path class="cls-1" d="M1012,65.81l-3.31,15.55a2.86,2.86,0,0,0,.32,2l8.92,15.54a2.87,2.87,0,0,1,.3,2l-1.36,5.89" transform="translate(-46.44 -46.44)"/><g id="LINE-5" data-name="LINE"><line class="cls-1" x1="271.75" y1="205.26" x2="283.12" y2="217.88"/></g><g id="LINE-6" data-name="LINE"><line class="cls-1" x1="288.05" y1="243.23" x2="274.92" y2="229.15"/></g><g id="LINE-7" data-name="LINE"><line class="cls-1" x1="288.05" y1="243.23" x2="291.5" y2="246.99"/></g><g id="LINE-8" data-name="LINE"><line class="cls-1" x1="576.31" y1="76.8" x2="577.83" y2="81.67"/></g><g id="ARC-8" data-name="ARC"><path class="cls-1" d="M318.42,247.68a2.84,2.84,0,0,0-.25,4l0,0" transform="translate(-46.44 -46.44)"/></g><g id="ARC-9" data-name="ARC"><path class="cls-1" d="M624.27,128.11A756.86,756.86,0,0,0,337.94,293.42" transform="translate(-46.44 -46.44)"/></g><g id="ARC-10" data-name="ARC"><path class="cls-1" d="M329.56,264.32q-4.05,3.6-8,7.24" transform="translate(-46.44 -46.44)"/></g><g id="ARC-11" data-name="ARC"><path class="cls-1" d="M321.52,271.56a2.83,2.83,0,0,0-.18,4l0,0" transform="translate(-46.44 -46.44)"/></g><g id="ARC-12" data-name="ARC"><path class="cls-1" d="M603.26,106.3" transform="translate(-46.44 -46.44)"/></g><g id="ARC-13" data-name="ARC"><path class="cls-1" d="M598,90.14a2.85,2.85,0,0,0-3.57-1.82h0" transform="translate(-46.44 -46.44)"/></g><g id="ARC-14" data-name="ARC"><path class="cls-1" d="M594.41,88.33a804,804,0,0,0-276,159.35" transform="translate(-46.44 -46.44)"/></g><path class="cls-1" d="M598,90.14l4.91,15.13a2.84,2.84,0,0,0,1.28,1.57l15.49,9a2.85,2.85,0,0,1,1.29,1.62l1.77,5.78" transform="translate(-46.44 -46.44)"/><g id="LINE-9" data-name="LINE"><line class="cls-1" x1="43.71" y1="551.57" x2="59.86" y2="556.82"/></g><g id="LINE-10" data-name="LINE"><line class="cls-1" x1="76.8" y1="576.31" x2="58.39" y2="570.68"/></g><g id="LINE-11" data-name="LINE"><line class="cls-1" x1="76.8" y1="576.31" x2="81.67" y2="577.83"/></g><g id="LINE-12" data-name="LINE"><line class="cls-1" x1="243.23" y1="288.05" x2="246.99" y2="291.5"/></g><g id="ARC-15" data-name="ARC"><path class="cls-1" d="M88.33,594.41A2.83,2.83,0,0,0,90.12,598h0" transform="translate(-46.44 -46.44)"/></g><g id="ARC-16" data-name="ARC"><path class="cls-1" d="M293.42,337.94A756.86,756.86,0,0,0,128.11,624.27" transform="translate(-46.44 -46.44)"/></g><g id="ARC-17" data-name="ARC"><path class="cls-1" d="M106.3,603.26q-1.71,5.13-3.34,10.29" transform="translate(-46.44 -46.44)"/></g><g id="ARC-18" data-name="ARC"><path class="cls-1" d="M103,613.55a2.84,2.84,0,0,0,1.84,3.56h0" transform="translate(-46.44 -46.44)"/></g><g id="ARC-19" data-name="ARC"><path class="cls-1" d="M264.32,329.56" transform="translate(-46.44 -46.44)"/></g><g id="ARC-20" data-name="ARC"><path class="cls-1" d="M251.7,318.19a2.84,2.84,0,0,0-4,.21v0" transform="translate(-46.44 -46.44)"/></g><g id="ARC-21" data-name="ARC"><path class="cls-1" d="M247.68,318.42a804,804,0,0,0-159.35,276" transform="translate(-46.44 -46.44)"/></g><path class="cls-1" d="M251.7,318.19l11.81,10.64a2.83,2.83,0,0,0,1.89.73l17.92,0a2.85,2.85,0,0,1,1.93.76l4.42,4.13" transform="translate(-46.44 -46.44)"/><g id="LINE-13" data-name="LINE"><line class="cls-1" x1="19.37" y1="965.51" x2="35.98" y2="961.98"/></g><g id="LINE-14" data-name="LINE"><line class="cls-1" x1="60.4" y1="970.38" x2="41.64" y2="974.71"/></g><g id="LINE-15" data-name="LINE"><line class="cls-1" x1="60.4" y1="970.38" x2="65.38" y2="969.27"/></g><g id="LINE-16" data-name="LINE"><line class="cls-1" x1="60.4" y1="637.53" x2="65.38" y2="638.64"/></g><g id="ARC-22" data-name="ARC"><path class="cls-1" d="M62.44,1009.74a2.83,2.83,0,0,0,3.34,2.21h0" transform="translate(-46.44 -46.44)"/></g><g id="ARC-23" data-name="ARC"><path class="cls-1" d="M111.82,685.08a756.75,756.75,0,0,0,0,330.63" transform="translate(-46.44 -46.44)"/></g><g id="ARC-24" data-name="ARC"><path class="cls-1" d="M82.42,1008.42q1.1,5.3,2.25,10.58" transform="translate(-46.44 -46.44)"/></g><g id="ARC-25" data-name="ARC"><path class="cls-1" d="M84.67,1019a2.84,2.84,0,0,0,3.38,2.16h0" transform="translate(-46.44 -46.44)"/></g><g id="ARC-26" data-name="ARC"><path class="cls-1" d="M82.42,692.37" transform="translate(-46.44 -46.44)"/></g><g id="ARC-27" data-name="ARC"><path class="cls-1" d="M65.81,688.84A2.84,2.84,0,0,0,62.44,691v0" transform="translate(-46.44 -46.44)"/></g><g id="ARC-28" data-name="ARC"><path class="cls-1" d="M62.44,691.05a803.8,803.8,0,0,0,0,318.69" transform="translate(-46.44 -46.44)"/></g><path class="cls-1" d="M65.81,688.84l15.55,3.31a2.86,2.86,0,0,0,2-.32l15.54-8.92a2.82,2.82,0,0,1,2-.3l5.89,1.36" transform="translate(-46.44 -46.44)"/><g id="LINE-17" data-name="LINE"><line class="cls-1" x1="205.26" y1="1336.16" x2="217.88" y2="1324.79"/></g><g id="LINE-18" data-name="LINE"><line class="cls-1" x1="243.23" y1="1319.86" x2="229.15" y2="1332.99"/></g><g id="LINE-19" data-name="LINE"><line class="cls-1" x1="243.23" y1="1319.86" x2="246.99" y2="1316.41"/></g><g id="LINE-20" data-name="LINE"><line class="cls-1" x1="76.8" y1="1031.6" x2="81.67" y2="1030.08"/></g><g id="ARC-29" data-name="ARC"><path class="cls-1" d="M247.68,1382.37a2.84,2.84,0,0,0,4,.25l0,0" transform="translate(-46.44 -46.44)"/></g><g id="ARC-30" data-name="ARC"><path class="cls-1" d="M128.11,1076.52a756.93,756.93,0,0,0,165.31,286.33" transform="translate(-46.44 -46.44)"/></g><g id="ARC-31" data-name="ARC"><path class="cls-1" d="M264.32,1371.23q3.6,4.05,7.24,8" transform="translate(-46.44 -46.44)"/></g><g id="ARC-32" data-name="ARC"><path class="cls-1" d="M271.56,1379.27a2.83,2.83,0,0,0,4,.18l0,0" transform="translate(-46.44 -46.44)"/></g><g id="ARC-33" data-name="ARC"><path class="cls-1" d="M106.3,1097.53" transform="translate(-46.44 -46.44)"/></g><g id="ARC-34" data-name="ARC"><path class="cls-1" d="M90.14,1102.78a2.84,2.84,0,0,0-1.82,3.57v0" transform="translate(-46.44 -46.44)"/></g><g id="ARC-35" data-name="ARC"><path class="cls-1" d="M88.33,1106.38a804.16,804.16,0,0,0,159.35,276" transform="translate(-46.44 -46.44)"/></g><path class="cls-1" d="M90.14,1102.78l15.13-4.91a2.84,2.84,0,0,0,1.57-1.28l9-15.49a2.85,2.85,0,0,1,1.62-1.29l5.78-1.77" transform="translate(-46.44 -46.44)"/><g id="LINE-21" data-name="LINE"><line class="cls-1" x1="551.57" y1="1564.21" x2="556.82" y2="1548.05"/></g><g id="LINE-22" data-name="LINE"><line class="cls-1" x1="576.31" y1="1531.11" x2="570.68" y2="1549.52"/></g><g id="LINE-23" data-name="LINE"><line class="cls-1" x1="576.31" y1="1531.11" x2="577.83" y2="1526.24"/></g><g id="LINE-24" data-name="LINE"><line class="cls-1" x1="288.05" y1="1364.68" x2="291.5" y2="1360.92"/></g><g id="ARC-36" data-name="ARC"><path class="cls-1" d="M594.41,1612.45a2.84,2.84,0,0,0,3.59-1.78v0" transform="translate(-46.44 -46.44)"/></g><g id="ARC-37" data-name="ARC"><path class="cls-1" d="M337.94,1407.36a756.75,756.75,0,0,0,286.33,165.32" transform="translate(-46.44 -46.44)"/></g><g id="ARC-38" data-name="ARC"><path class="cls-1" d="M603.26,1594.49q5.13,1.71,10.29,3.34" transform="translate(-46.44 -46.44)"/></g><g id="ARC-39" data-name="ARC"><path class="cls-1" d="M613.55,1597.83a2.83,2.83,0,0,0,3.56-1.85v0" transform="translate(-46.44 -46.44)"/></g><g id="ARC-40" data-name="ARC"><path class="cls-1" d="M329.56,1436.47" transform="translate(-46.44 -46.44)"/></g><g id="ARC-41" data-name="ARC"><path class="cls-1" d="M318.19,1449.09a2.83,2.83,0,0,0,.21,4l0,0" transform="translate(-46.44 -46.44)"/></g><g id="ARC-42" data-name="ARC"><path class="cls-1" d="M318.42,1453.11a803.79,803.79,0,0,0,276,159.34" transform="translate(-46.44 -46.44)"/></g><path class="cls-1" d="M318.19,1449.09l10.64-11.82a2.81,2.81,0,0,0,.73-1.89l0-17.91a2.81,2.81,0,0,1,.76-1.93l4.13-4.42" transform="translate(-46.44 -46.44)"/><g id="LINE-25" data-name="LINE"><line class="cls-1" x1="965.51" y1="1588.54" x2="961.98" y2="1571.93"/></g><g id="LINE-26" data-name="LINE"><line class="cls-1" x1="970.38" y1="1547.51" x2="974.71" y2="1566.27"/></g><g id="LINE-27" data-name="LINE"><line class="cls-1" x1="970.38" y1="1547.51" x2="969.27" y2="1542.53"/></g><g id="LINE-28" data-name="LINE"><line class="cls-1" x1="637.53" y1="1547.51" x2="638.64" y2="1542.53"/></g><g id="ARC-43" data-name="ARC"><path class="cls-1" d="M1009.74,1638.35A2.84,2.84,0,0,0,1012,1635v0" transform="translate(-46.44 -46.44)"/></g><g id="ARC-44" data-name="ARC"><path class="cls-1" d="M685.08,1589a756.75,756.75,0,0,0,330.63,0" transform="translate(-46.44 -46.44)"/></g><g id="ARC-45" data-name="ARC"><path class="cls-1" d="M1008.42,1618.37q5.3-1.09,10.58-2.26" transform="translate(-46.44 -46.44)"/></g><g id="ARC-46" data-name="ARC"><path class="cls-1" d="M1019,1616.11a2.83,2.83,0,0,0,2.16-3.37v0" transform="translate(-46.44 -46.44)"/></g><g id="ARC-47" data-name="ARC"><path class="cls-1" d="M692.37,1618.37" transform="translate(-46.44 -46.44)"/></g><g id="ARC-48" data-name="ARC"><path class="cls-1" d="M688.84,1635a2.83,2.83,0,0,0,2.18,3.36h0" transform="translate(-46.44 -46.44)"/></g><g id="ARC-49" data-name="ARC"><path class="cls-1" d="M691.05,1638.35a803.8,803.8,0,0,0,318.69,0" transform="translate(-46.44 -46.44)"/></g><path class="cls-1" d="M688.84,1635l3.31-15.55a2.85,2.85,0,0,0-.32-2l-8.92-15.54a2.82,2.82,0,0,1-.3-2.05L684,1594" transform="translate(-46.44 -46.44)"/><g id="LINE-29" data-name="LINE"><line class="cls-1" x1="1336.16" y1="1402.65" x2="1324.79" y2="1390.03"/></g><g id="LINE-30" data-name="LINE"><line class="cls-1" x1="1319.86" y1="1364.68" x2="1332.99" y2="1378.76"/></g><g id="LINE-31" data-name="LINE"><line class="cls-1" x1="1319.86" y1="1364.68" x2="1316.41" y2="1360.92"/></g><g id="LINE-32" data-name="LINE"><line class="cls-1" x1="1031.6" y1="1531.11" x2="1030.08" y2="1526.24"/></g><g id="ARC-50" data-name="ARC"><path class="cls-1" d="M1382.37,1453.11a2.84,2.84,0,0,0,.25-4l0,0" transform="translate(-46.44 -46.44)"/></g><g id="ARC-51" data-name="ARC"><path class="cls-1" d="M1076.52,1572.68a756.83,756.83,0,0,0,286.33-165.32" transform="translate(-46.44 -46.44)"/></g><g id="ARC-52" data-name="ARC"><path class="cls-1" d="M1371.23,1436.47q4.05-3.6,8-7.25" transform="translate(-46.44 -46.44)"/></g><g id="ARC-53" data-name="ARC"><path class="cls-1" d="M1379.27,1429.22a2.82,2.82,0,0,0,.18-4l0,0" transform="translate(-46.44 -46.44)"/></g><g id="ARC-54" data-name="ARC"><path class="cls-1" d="M1097.53,1594.49" transform="translate(-46.44 -46.44)"/></g><g id="ARC-55" data-name="ARC"><path class="cls-1" d="M1102.78,1610.64a2.82,2.82,0,0,0,3.57,1.82h0" transform="translate(-46.44 -46.44)"/></g><g id="ARC-56" data-name="ARC"><path class="cls-1" d="M1106.38,1612.45a804,804,0,0,0,276-159.34" transform="translate(-46.44 -46.44)"/></g><path class="cls-1" d="M1102.78,1610.64l-4.91-15.12a2.84,2.84,0,0,0-1.28-1.57l-15.49-9a2.85,2.85,0,0,1-1.29-1.62l-1.77-5.79" transform="translate(-46.44 -46.44)"/><g id="LINE-33" data-name="LINE"><line class="cls-1" x1="1564.21" y1="1056.34" x2="1548.05" y2="1051.09"/></g><g id="LINE-34" data-name="LINE"><line class="cls-1" x1="1531.11" y1="1031.6" x2="1549.52" y2="1037.23"/></g><g id="LINE-35" data-name="LINE"><line class="cls-1" x1="1531.11" y1="1031.6" x2="1526.24" y2="1030.08"/></g><g id="LINE-36" data-name="LINE"><line class="cls-1" x1="1364.68" y1="1319.86" x2="1360.92" y2="1316.41"/></g><g id="ARC-57" data-name="ARC"><path class="cls-1" d="M1612.45,1106.38a2.83,2.83,0,0,0-1.78-3.59h0" transform="translate(-46.44 -46.44)"/></g><g id="ARC-58" data-name="ARC"><path class="cls-1" d="M1407.36,1362.85a756.83,756.83,0,0,0,165.32-286.33" transform="translate(-46.44 -46.44)"/></g><g id="ARC-59" data-name="ARC"><path class="cls-1" d="M1594.49,1097.53q1.71-5.13,3.34-10.29" transform="translate(-46.44 -46.44)"/></g><g id="ARC-60" data-name="ARC"><path class="cls-1" d="M1597.83,1087.24a2.83,2.83,0,0,0-1.85-3.56h0" transform="translate(-46.44 -46.44)"/></g><g id="ARC-61" data-name="ARC"><path class="cls-1" d="M1436.47,1371.23" transform="translate(-46.44 -46.44)"/></g><g id="ARC-62" data-name="ARC"><path class="cls-1" d="M1449.09,1382.6a2.84,2.84,0,0,0,4-.21l0,0" transform="translate(-46.44 -46.44)"/></g><g id="ARC-63" data-name="ARC"><path class="cls-1" d="M1453.11,1382.37a804,804,0,0,0,159.34-276" transform="translate(-46.44 -46.44)"/></g><path class="cls-1" d="M1449.09,1382.6,1437.27,1372a2.81,2.81,0,0,0-1.89-.73l-17.91,0a2.86,2.86,0,0,1-1.93-.76l-4.42-4.13" transform="translate(-46.44 -46.44)"/><g id="LINE-37" data-name="LINE"><line class="cls-1" x1="1588.54" y1="642.4" x2="1571.93" y2="645.93"/></g><g id="LINE-38" data-name="LINE"><line class="cls-1" x1="1547.51" y1="637.53" x2="1566.27" y2="633.2"/></g><g id="LINE-39" data-name="LINE"><line class="cls-1" x1="1547.51" y1="637.53" x2="1542.53" y2="638.64"/></g><g id="LINE-40" data-name="LINE"><line class="cls-1" x1="1547.51" y1="970.38" x2="1542.53" y2="969.27"/></g><g id="ARC-64" data-name="ARC"><path class="cls-1" d="M1638.35,691.05a2.83,2.83,0,0,0-3.34-2.21h0" transform="translate(-46.44 -46.44)"/></g><g id="ARC-65" data-name="ARC"><path class="cls-1" d="M1589,1015.71a756.75,756.75,0,0,0,0-330.63" transform="translate(-46.44 -46.44)"/></g><g id="ARC-66" data-name="ARC"><path class="cls-1" d="M1618.37,692.37q-1.09-5.29-2.26-10.58" transform="translate(-46.44 -46.44)"/></g><g id="ARC-67" data-name="ARC"><path class="cls-1" d="M1616.11,681.79a2.83,2.83,0,0,0-3.37-2.16h0" transform="translate(-46.44 -46.44)"/></g><g id="ARC-68" data-name="ARC"><path class="cls-1" d="M1618.37,1008.42" transform="translate(-46.44 -46.44)"/></g><g id="ARC-69" data-name="ARC"><path class="cls-1" d="M1635,1012a2.84,2.84,0,0,0,3.36-2.19v0" transform="translate(-46.44 -46.44)"/></g><g id="ARC-70" data-name="ARC"><path class="cls-1" d="M1638.35,1009.74a803.8,803.8,0,0,0,0-318.69" transform="translate(-46.44 -46.44)"/></g><path class="cls-1" d="M1635,1012l-15.55-3.31a2.85,2.85,0,0,0-2,.32l-15.54,8.92a2.87,2.87,0,0,1-2.05.3l-5.89-1.36" transform="translate(-46.44 -46.44)"/><g id="LINE-41" data-name="LINE"><line class="cls-1" x1="1402.65" y1="271.75" x2="1390.03" y2="283.12"/></g><g id="LINE-42" data-name="LINE"><line class="cls-1" x1="1364.68" y1="288.05" x2="1378.76" y2="274.92"/></g><g id="LINE-43" data-name="LINE"><line class="cls-1" x1="1364.68" y1="288.05" x2="1360.92" y2="291.5"/></g><g id="LINE-44" data-name="LINE"><line class="cls-1" x1="1531.11" y1="576.31" x2="1526.24" y2="577.83"/></g><g id="ARC-71" data-name="ARC"><path class="cls-1" d="M1453.11,318.42a2.84,2.84,0,0,0-4-.25l0,0" transform="translate(-46.44 -46.44)"/></g><g id="ARC-72" data-name="ARC"><path class="cls-1" d="M1572.68,624.27a756.75,756.75,0,0,0-165.32-286.33" transform="translate(-46.44 -46.44)"/></g><g id="ARC-73" data-name="ARC"><path class="cls-1" d="M1436.47,329.56q-3.6-4.05-7.25-8" transform="translate(-46.44 -46.44)"/></g><g id="ARC-74" data-name="ARC"><path class="cls-1" d="M1429.22,321.52a2.82,2.82,0,0,0-4-.18l0,0" transform="translate(-46.44 -46.44)"/></g><g id="ARC-75" data-name="ARC"><path class="cls-1" d="M1594.49,603.26" transform="translate(-46.44 -46.44)"/></g><g id="ARC-76" data-name="ARC"><path class="cls-1" d="M1610.64,598a2.83,2.83,0,0,0,1.82-3.57v0" transform="translate(-46.44 -46.44)"/></g><g id="ARC-77" data-name="ARC"><path class="cls-1" d="M1612.45,594.41a803.79,803.79,0,0,0-159.34-276" transform="translate(-46.44 -46.44)"/></g><path class="cls-1" d="M1610.64,598l-15.12,4.91a2.84,2.84,0,0,0-1.57,1.28l-9,15.49a2.85,2.85,0,0,1-1.62,1.29l-5.79,1.77" transform="translate(-46.44 -46.44)"/><g id="LINE-45" data-name="LINE"><line class="cls-1" x1="1056.34" y1="43.71" x2="1051.09" y2="59.86"/></g><g id="LINE-46" data-name="LINE"><line class="cls-1" x1="1031.6" y1="76.8" x2="1037.23" y2="58.39"/></g><g id="LINE-47" data-name="LINE"><line class="cls-1" x1="1031.6" y1="76.8" x2="1030.08" y2="81.67"/></g><g id="LINE-48" data-name="LINE"><line class="cls-1" x1="1319.86" y1="243.23" x2="1316.41" y2="246.99"/></g><g id="ARC-78" data-name="ARC"><path class="cls-1" d="M1106.38,88.33a2.83,2.83,0,0,0-3.59,1.79v0" transform="translate(-46.44 -46.44)"/></g><g id="ARC-79" data-name="ARC"><path class="cls-1" d="M1362.85,293.42a756.93,756.93,0,0,0-286.33-165.31" transform="translate(-46.44 -46.44)"/></g><g id="ARC-80" data-name="ARC"><path class="cls-1" d="M1097.53,106.3q-5.13-1.71-10.29-3.34" transform="translate(-46.44 -46.44)"/></g><g id="ARC-81" data-name="ARC"><path class="cls-1" d="M1087.24,103a2.84,2.84,0,0,0-3.56,1.84v0" transform="translate(-46.44 -46.44)"/></g><g id="ARC-82" data-name="ARC"><path class="cls-1" d="M1371.23,264.32" transform="translate(-46.44 -46.44)"/></g><g id="ARC-83" data-name="ARC"><path class="cls-1" d="M1382.6,251.7a2.85,2.85,0,0,0-.21-4h0" transform="translate(-46.44 -46.44)"/></g><g id="ARC-84" data-name="ARC"><path class="cls-1" d="M1382.37,247.68a804.16,804.16,0,0,0-276-159.35" transform="translate(-46.44 -46.44)"/></g><path class="cls-1" d="M1382.6,251.7,1372,263.51a2.83,2.83,0,0,0-.73,1.89l0,17.92a2.89,2.89,0,0,1-.76,1.93l-4.13,4.42" transform="translate(-46.44 -46.44)"/></g><g id="Numbers"><text class="cls-2" transform="matrix(0.97, 0.26, -0.26, 0.97, 1308.87, 235.05)">1</text><text class="cls-2" transform="matrix(0.97, 0.26, -0.26, 0.97, 1526.08, 567.66)">2</text><text class="cls-2" transform="matrix(0.97, 0.26, -0.26, 0.97, 1546.32, 965.42)">3</text><text class="cls-2" transform="matrix(0.97, 0.26, -0.26, 0.97, 1366.67, 1317.72)">4</text><text class="cls-2" transform="matrix(0.97, 0.26, -0.26, 0.97, 1038.06, 1537.76)">5</text><text class="cls-3" transform="matrix(0.97, 0.26, -0.26, 0.97, 638.53, 1558.69)">6</text><text class="cls-2" transform="matrix(0.97, 0.26, -0.26, 0.97, 283.54, 1378.93)">7</text><text class="cls-2" transform="matrix(0.97, 0.26, -0.26, 0.97, 66.95, 1048.31)">8</text><text class="cls-3" transform="matrix(0.97, 0.26, -0.26, 0.97, 46.1, 650.18)">9</text><text class="cls-2" transform="matrix(0.97, 0.26, -0.26, 0.97, 218.96, 294.38)">10</text><text class="cls-2" transform="matrix(0.97, 0.26, -0.26, 0.97, 551.86, 77.2)">11</text><text class="cls-2" transform="matrix(0.97, 0.26, -0.26, 0.97, 948.15, 57.06)">12</text></g></svg>